<svg width="123" height="123" viewBox="0 0 123 123" fill="none" xmlns="http://www.w3.org/2000/svg">
<g clip-path="url(#clip0_49_217)">
<path fill-rule="evenodd" clip-rule="evenodd" d="M110.405 48.636C109.749 48.4321 109.163 48.8217 108.776 48.298C108.372 47.7504 108.034 47.1922 108.044 46.4481C108.076 44.103 108.084 41.7573 108.035 39.4131C108.024 38.8649 108.231 38.4587 108.444 38.0095C109.019 36.7933 109.633 35.6008 110.509 34.5674C110.918 34.0846 111.391 33.6863 112 33.4509C112.325 33.3261 112.603 33.7315 113.024 33.3462C113.36 33.0391 113.766 33.9065 114.27 33.8722C114.577 34.6464 113.94 35.0038 113.524 35.4852C114.056 35.7291 114.615 35.7097 115.115 36.0082C115.604 36.301 115.988 36.5673 115.872 37.1564C115.73 37.8847 116.322 38.1552 116.655 38.59C116.51 38.7846 116.173 38.9108 116.283 39.21C117.173 41.6475 116.525 43.3174 115.745 45.315C115.529 45.8704 115.209 46.5299 115.178 47.0063C115.101 48.1788 114.304 49.0233 114.112 50.1141C113.971 50.9207 113.446 51.4108 112.521 51.3626C112.347 51.3532 112.2 51.7538 111.739 51.6611C111.613 51.527 111.213 51.293 111.222 51.0749C111.251 50.353 111.154 49.7875 110.418 49.4488C110.321 49.4045 110.405 48.9688 110.405 48.636Z" fill="black"/>
<path fill-rule="evenodd" clip-rule="evenodd" d="M71.4868 107.245C72.289 107.448 73.2923 106.841 73.9429 107.791C73.6718 108.332 73.4062 108.861 73.155 109.362C73.501 109.716 73.7141 109.551 74.0391 109.425C75.2426 108.954 75.526 109.109 75.9501 110.31C76.0118 110.485 75.9816 110.745 76.1767 110.784C77.5487 111.056 77.2345 112.432 77.805 113.225C77.2172 113.919 78.2017 114.616 77.8788 115.177C77.5143 115.811 77.6312 116.695 76.8814 117.117C76.6597 117.242 76.7723 117.465 76.743 117.647C76.4861 119.229 75.8065 120.481 74.1669 121.019C73.9502 121.091 73.8504 121.442 73.3891 121.306C73.1817 120.881 72.9248 120.355 72.6672 119.828C72.2561 119.698 71.5269 120.072 71.6368 119.087H69.3973C69.2573 118.021 69.4108 116.894 68.5548 116.092C68.4875 116.029 68.4809 115.817 68.5334 115.722C69.0406 114.808 68.7077 113.727 69.0902 112.824C69.2838 112.367 69.4224 112.032 69.1461 111.612C68.4795 110.599 69.1525 109.815 69.6764 109.096C70.1679 108.419 70.851 107.881 71.4868 107.245Z" fill="black"/>
<path fill-rule="evenodd" clip-rule="evenodd" d="M90.739 57.0489C90.4577 57.681 89.8701 57.5189 89.2551 57.6588C89.3814 58.4769 88.9723 59.358 89.6282 60.1402C89.0134 60.1616 89.0134 60.1616 88.6882 59.9184C88.2484 60.1746 88.102 60.646 87.7798 61.1087C87.8802 59.6859 87.302 58.6605 86.2873 57.9838C85.8267 57.8934 85.7577 58.2385 85.5309 58.3262C84.7618 56.9075 84.7424 56.1993 85.3537 52.4752C85.6716 50.5449 86.6683 48.9541 88.0784 47.3495C88.5032 47.257 89.1984 48.4841 89.8422 47.313C90.4657 48.4202 89.319 49.0308 89.2566 50.0971C89.8787 49.8166 90.4821 49.5913 91.1122 49.8137C91.4429 50.0994 91.0138 50.5678 91.3755 50.875C91.9467 51.36 92.4548 51.8889 91.6712 52.6179C92.5179 53.2451 91.4623 53.7927 91.5909 54.4262C91.7142 55.0376 91.6174 55.6941 91.6174 56.3507C91.0003 56.2288 90.8861 55.5012 90.2218 55.6174C89.6513 56.3651 90.6559 56.4864 90.739 57.0489Z" fill="black"/>
<path fill-rule="evenodd" clip-rule="evenodd" d="M18.9439 97.773C18.6956 97.3037 18.06 97.5807 17.648 97.4028V96.5281C17.6008 96.4749 17.5419 96.3788 17.5174 96.3867C16.4397 96.7469 15.8778 95.6182 14.935 95.5013C14.033 95.3892 13.5163 94.7098 13.3391 93.8107C13.2688 93.4489 13.4274 93.1856 13.7488 93.0127C12.2039 91.7183 13.1712 90.4309 13.6713 89.1178C14.3128 87.4351 15.6332 87.2357 17.125 87.3175C17.4242 88.157 17.2563 88.8531 16.6887 89.3754C17.8625 90.1418 18.2112 88.9981 18.9548 88.7848C19.1965 89.2463 19.4125 89.6581 19.6041 90.0226C19.594 90.4547 18.9626 90.6068 19.2684 91.0898C19.7957 91.719 19.9779 90.7043 20.5269 90.8701C21.2653 91.5346 21.1785 92.5484 21.1598 93.4649C21.4633 93.5437 21.6398 93.5903 21.9132 93.6615C21.8143 94.1494 21.1326 94.29 21.1527 94.8139C21.1504 95.3828 21.7547 94.9509 21.929 95.3721C20.9997 96.1385 20.3676 97.2879 18.9439 97.773Z" fill="black"/>
<path fill-rule="evenodd" clip-rule="evenodd" d="M64.3888 70.4927H65.9926C66.3213 70.8213 66.2359 71.7024 65.7953 72.6273C66.7209 73.3837 67.0811 72.2852 67.5892 72.0498C68.1869 72.0217 68.2214 72.5398 68.4854 72.6029C68.6539 73.1727 67.9688 73.2933 68.1898 73.8825C68.6002 74.125 69.485 73.8968 69.6629 74.5971C69.7899 75.0979 69.9111 75.7538 69.2804 76.2001C69.5387 76.2905 69.7648 76.3695 69.9915 76.4483C69.9406 77.0037 69.1929 77.42 69.6385 78.1403C68.7969 79.2626 67.3695 79.7154 66.2738 80.6095C66.0751 80.7717 65.656 81.335 65.1013 80.9619C64.8775 80.6611 65.3941 80.6618 65.3475 80.3914C64.7978 80.0454 64.1097 80.4631 63.5177 80.1575C63.3341 79.7218 63.6217 79.0833 62.9228 78.8149C62.0948 79.2125 61.2603 79.3717 60.5313 78.2294C61.4856 77.6043 62.77 77.3912 62.9831 75.9612C62.1881 75.9383 61.6958 76.6435 60.9387 76.7511C60.7816 76.6091 60.595 76.4412 60.3417 76.213C60.2874 76.1735 60.3849 76.1233 60.458 75.9833C60.9008 75.1417 62.2799 75.2557 62.3775 74.0832C63.2508 73.7381 63.1841 72.7652 63.3426 72.1566C63.5255 71.4528 63.8959 71.0552 64.3888 70.4927Z" fill="black"/>
<path fill-rule="evenodd" clip-rule="evenodd" d="M31.26 115.181C31.4838 114.661 31.9346 114.544 31.5678 113.941C31.3223 113.681 30.7448 114.103 30.236 113.824C30.2081 113.689 30.1722 113.511 30.124 113.272C30.0667 113.178 29.9555 113.133 29.8865 113.234C29.6735 113.552 29.362 113.544 29.0342 113.537C28.0762 113.519 27.8709 113.243 27.7921 112.266C27.7576 111.835 28.1056 111.643 28.1401 111.226C27.8207 111.203 27.513 111.181 27.0924 111.151C26.7824 109.703 27.6277 108.428 27.8997 107.092C28.0381 106.413 29.0836 106.085 29.9246 106.092C30.2309 106.231 30.1348 106.53 30.1786 106.648C30.32 106.923 30.3695 106.872 30.5123 106.75C30.9464 106.378 31.4687 106.286 31.8175 106.798C32.1755 107.323 32.6844 107.244 33.1608 107.327C33.4327 107.607 33.2297 107.95 33.3014 108.251C33.5403 108.583 33.897 108.379 34.2544 108.487C34.9898 108.982 34.6383 110.063 35.2561 110.683C33.1982 113.943 32.7051 114.52 31.26 115.181Z" fill="black"/>
<path fill-rule="evenodd" clip-rule="evenodd" d="M53.8015 31.3341C53.6085 30.2936 52.9125 29.9414 51.8626 30.2132C50.9249 28.4344 51.2592 26.5818 51.4709 24.7842C51.5153 24.4024 51.7377 23.936 51.6733 23.5307C51.5463 22.732 52.0291 22.0898 52.1568 21.3607C52.2559 20.7961 53.1098 20.6698 53.6408 20.3748C54.3533 21.0041 54.3533 21.0041 54.5485 21.9133C54.7795 21.9284 55.0279 21.9441 54.8514 21.9327C55.8501 21.9679 55.434 22.6322 55.8574 22.8209C56.0983 22.9287 56.4758 23.1712 56.3804 23.5521C56.2246 24.1749 57.1454 24.6034 56.7535 25.1293C56.3559 25.6625 56.5893 26.2774 56.3582 26.7295C55.7662 27.889 55.5797 29.1526 55.2474 30.3712C55.03 31.1691 54.6166 31.3916 53.8015 31.3341Z" fill="black"/>
<path fill-rule="evenodd" clip-rule="evenodd" d="M95.102 88.2497C94.8156 88.003 94.619 87.7167 94.152 87.6786C92.9644 87.5817 92.9679 87.5358 92.6844 86.2249C91.8148 85.9342 90.999 86.2192 90.2698 86.5586C89.8996 86.1847 90.1558 85.8403 90.0029 85.5152C90.2735 85.422 90.5002 85.3437 90.7816 85.2468V83.0016C90.3918 83.1257 90.0273 83.2419 89.4792 83.4157C89.2689 83.4321 89.2108 82.9852 88.9087 82.8925C89.3442 81.7588 90.252 81.0607 91.0413 80.2648C92.0043 80.4765 93.0482 79.4008 93.9136 80.5331C93.8777 80.6007 93.8218 81.8945 93.8994 82.1571C93.7098 82.1793 93.529 82.2044 93.3474 82.2215C93.2204 82.2338 93.0928 82.2359 92.9651 82.2432C92.6486 82.5344 92.8948 83.0562 92.4556 83.3453C93.4394 83.0016 94.2947 82.5819 94.9376 81.8191C95.2096 82.1405 95.4779 82.4031 95.9774 82.2704C95.1205 82.9642 96.2702 83.8405 95.2562 84.4813C96.024 84.5135 96.1037 84.0113 96.4086 83.9051C96.6942 83.806 97.0142 83.806 97.2976 83.7658C97.6464 84.487 98.1278 85.1127 97.7462 86.047C97.2496 86.4782 96.0649 86.3814 95.8712 87.6075C96.7573 87.4353 97.3415 86.9352 97.7784 86.496C98.3324 86.5981 98.2815 86.8685 98.2634 87.1225C97.2732 87.0521 97.3687 88.2858 96.5335 88.5283C95.8632 88.7227 95.3035 89.3003 94.4655 89.863C94.5494 89.1087 94.835 88.6804 95.102 88.2497Z" fill="black"/>
<path fill-rule="evenodd" clip-rule="evenodd" d="M77.1353 29.5797C76.9058 29.8099 76.6754 30.0396 76.4444 30.2705C77.1239 30.7156 75.7498 31.5033 76.7178 31.9009C75.2174 33.6776 75.198 33.7228 75.1169 35.5777H73.2943C73.1442 35.5024 73.2856 35.1845 73.1458 34.9828C71.3211 34.7704 70.9321 34.3463 70.8725 32.5159C70.8568 32.0251 71.0182 31.4841 70.5015 31.126C70.8819 30.5971 70.6688 29.9183 71.0662 29.3349C71.8297 28.2163 72.7913 27.3035 73.709 26.347C74.0872 26.1625 74.4323 26.2774 74.7481 26.3125C74.9189 27.0394 73.9294 27.4907 74.6195 28.2679C74.8428 27.9436 75.053 27.6364 75.2727 27.3165C75.9608 28.1459 77.1282 28.3848 77.1353 29.5797Z" fill="black"/>
<path fill-rule="evenodd" clip-rule="evenodd" d="M106.49 2.57255C106.22 3.03179 105.595 2.49363 105.318 3.01314C105.87 3.30016 106.457 3.09494 107.096 3.17745C107.332 3.9926 107.806 4.74103 108.119 5.59563C108.781 7.40604 108.347 8.96673 107.678 10.5949C107.412 11.2428 107.018 11.4882 106.258 11.3297C106.071 10.9293 105.847 10.4485 105.591 9.89739C105.157 9.73666 104.478 9.91247 104.141 9.13176C104.182 7.83226 104.238 6.38566 103.296 5.15576C103.579 4.6384 103.836 4.17128 104.107 3.6776C103.891 3.59938 103.665 3.51757 103.324 3.39416C103.508 2.76343 103.731 2.16139 104.294 1.64331H105.95C106.18 1.91312 106.585 2.0968 106.49 2.57255Z" fill="black"/>
<path fill-rule="evenodd" clip-rule="evenodd" d="M49.8416 50.6056C49.571 51.0375 49.152 50.8847 48.8148 50.9084C47.8799 50.0703 48.4805 48.7407 47.7808 47.8336C48.9418 45.5633 48.9418 45.5633 50.9216 44.6484C51.3206 44.7474 51.5501 45.023 51.6951 45.3875C51.8063 45.8173 51.06 45.9134 51.3105 46.4079C51.6821 46.8363 51.9598 46.5613 52.2339 46.2622C53.3598 46.7043 53.0814 48.1609 54.0616 48.7558C53.951 49.5608 54.1958 50.3967 53.9346 51.2147L52.3079 53.234C52.0516 53.2448 51.7956 53.2562 51.5437 53.2678C51.3169 52.8738 50.844 51.6087 50.9143 51.4723C50.58 51.2019 50.2326 50.9213 49.8416 50.6056Z" fill="black"/>
<path fill-rule="evenodd" clip-rule="evenodd" d="M28.439 51.3084C28.0485 51.4726 28.4174 52.018 28.1147 52.0438C27.5499 52.1666 27.3346 51.8645 27.1775 51.617C26.8482 51.0974 27.2658 50.3935 26.9909 49.9493C26.6436 49.3868 26.5102 49.0251 26.9272 48.4396C27.2736 47.9538 27.0813 47.2929 27.3705 46.6758C28.0622 45.1962 28.0236 45.0779 29.6323 45.0907C29.6782 45.1366 29.7614 45.1804 29.7643 45.2293C29.7764 45.4876 29.77 45.7473 29.77 46.0587C30.2932 46.3602 31.0939 46.1334 31.3846 47.0303C31.6034 47.7056 32.3059 48.1806 32.1458 49.0639C32.0246 49.7377 32.1917 50.4064 31.5395 50.9898C31.2145 51.281 30.8959 51.843 30.921 52.4752C30.9382 52.9315 30.5536 53.2121 30.0283 53.2738C29.5426 53.3305 29.2756 53.042 29.0849 52.7362C28.8106 52.295 28.6471 51.7841 28.439 51.3084Z" fill="black"/>
<path fill-rule="evenodd" clip-rule="evenodd" d="M40.893 65.0015C41.4491 65.0015 41.9673 65.0015 42.4867 65.0015C42.9007 65.2655 42.5463 65.7312 42.7609 66.0484C43.0343 66.306 43.3764 66.1043 43.6879 66.1847C44.1364 67.0925 44.714 67.9685 45.0068 68.9323C45.3247 69.9741 44.8503 71.0053 44.5039 71.9854C43.711 72.312 43.3428 71.7027 42.895 71.2672C42.3761 71.2665 41.8595 71.2665 41.3293 71.2665C41.0632 70.5188 40.6921 69.8988 39.74 70.099C39.2944 69.5745 39.9035 68.7514 39.1896 68.3474C39.5426 67.8566 39.8747 67.3679 39.9624 66.7365C40.0485 66.1201 40.3692 65.5955 40.893 65.0015Z" fill="black"/>
<path fill-rule="evenodd" clip-rule="evenodd" d="M0.0742132 71.0442C0.785315 70.0885 1.82794 69.7799 2.95593 69.6824C3.71942 70.613 2.41847 70.7953 2.31443 71.3952C3.1511 72.1874 3.84068 70.8585 4.63215 71.3607C5.09785 71.7891 4.46783 71.9664 4.36809 72.2742C4.64794 72.6451 5.12224 72.2605 5.40353 72.496C5.72428 73.3067 5.18755 74.2102 5.86348 74.9887C5.22629 75.5649 5.34899 76.6771 4.43124 77.135C3.58022 76.9836 3.05783 76.3471 2.42206 75.849C1.8595 75.4092 0.951071 75.4953 0.481788 74.4111C0.77814 73.4481 -0.282415 72.3489 0.0742132 71.0442Z" fill="black"/>
<path fill-rule="evenodd" clip-rule="evenodd" d="M117.94 67.8222C117.282 67.434 116.632 67.3257 116.204 66.5888C116.48 66.4216 116.798 66.2293 117.116 66.037C116.233 65.7643 115.513 66.5931 114.734 66.0046C115.162 65.2519 116.087 65.2605 116.661 64.7524C116.723 64.2982 116.451 64.2982 116.106 64.1885C115.538 64.0084 115.428 64.896 114.884 64.5932C114.674 64.4009 114.579 64.0801 114.813 63.946C116.072 63.2198 117.102 62.2081 118.208 61.2932C118.865 60.7506 119.079 60.6035 120.117 60.4126C120.038 60.8138 119.652 60.9595 119.43 61.2637C119.951 61.832 120.387 61.3498 120.851 61.1482C120.918 61.9525 121.569 62.6221 121.254 63.7242C120.031 64.736 119.37 66.5205 117.94 67.8222Z" fill="black"/>
</g>
<defs>
<clipPath id="clip0_49_217">
<rect width="123" height="123" fill="white"/>
</clipPath>
</defs>
</svg>
