<svg width="100" height="100" viewBox="0 0 100 100" fill="none" xmlns="http://www.w3.org/2000/svg">
<circle cx="50" cy="50" r="50" fill="#E3D7FF"/>
<path d="M19 56.676C19 53.6121 19.6035 50.5779 20.7761 47.7473C21.9487 44.9164 23.6673 42.3442 25.8339 40.1776C28.0005 38.011 30.5726 36.2923 33.4033 35.1198C36.2343 33.9474 39.2683 33.3438 42.3324 33.3438V56.676H19Z" fill="#442781"/>
<path d="M19 56.6743C19 59.7384 19.6035 62.7724 20.7761 65.6034C21.9487 68.4341 23.6673 71.0062 25.8339 73.1728C28.0005 75.3394 30.5726 77.0581 33.4033 78.2307C36.2343 79.4033 39.2683 80.0067 42.3324 80.0067V56.6743H19Z" fill="#61459C"/>
<path d="M65.6623 56.6743C65.6623 59.7384 65.0592 62.7724 63.8868 65.6034C62.7142 68.4341 60.9957 71.0062 58.8287 73.1728C56.6621 75.3394 54.09 77.0581 51.2591 78.2307C48.4284 79.4033 45.3943 80.0067 42.3303 80.0067V56.6743H65.6623Z" fill="#A992DB"/>
<path d="M80.0515 36.5188C80.0515 46.1942 72.2076 54.0377 62.5324 54.0377H45.0137V36.5188C45.0137 26.8435 52.8572 19 62.5324 19C72.2076 19 80.0515 26.8435 80.0515 36.5188Z" fill="#FF7917"/>
</svg>
