<svg width="20" height="20" viewBox="0 0 20 20" fill="none" xmlns="http://www.w3.org/2000/svg">
<path d="M6.98622 5.00304C7.37113 3.94979 7.56358 3.42317 7.7314 3.16516C8.79952 1.52299 11.2039 1.52299 12.2721 3.16516C12.4399 3.42317 12.6323 3.94979 13.0172 5.00304L13.0566 5.11069C13.0899 5.20198 13.1066 5.24763 13.124 5.28837C13.3735 5.87282 13.9337 6.2645 14.5683 6.29826C14.6125 6.30061 14.6611 6.30061 14.7583 6.30061H15.1734C15.4515 6.30061 15.5906 6.30061 15.659 6.30407C18.1815 6.43171 19.1716 9.63776 17.1604 11.1656C17.1059 11.207 16.991 11.2854 16.7613 11.4423C16.7208 11.4699 16.7006 11.4837 16.6829 11.4965C16.0911 11.9238 15.8462 12.6865 16.0786 13.3785C16.0856 13.3993 16.0949 13.4247 16.1135 13.4755C16.3136 14.0232 16.4137 14.297 16.4483 14.4354C17.0112 16.686 14.6687 18.5565 12.5985 17.5094C12.4712 17.445 12.2403 17.2958 11.7786 16.9976L11.076 16.5437C10.9124 16.438 10.8306 16.3852 10.7502 16.3448C10.2793 16.1081 9.72416 16.1081 9.25323 16.3448C9.1729 16.3852 9.09108 16.438 8.92744 16.5437L8.23898 16.9885C7.76586 17.2941 7.5293 17.4469 7.39866 17.5125C5.33168 18.5513 2.99796 16.6878 3.55347 14.4422C3.58858 14.3003 3.69078 14.0206 3.89519 13.4613C3.91475 13.4077 3.92454 13.381 3.93194 13.3588C4.15985 12.6764 3.92412 11.9247 3.34732 11.4947C3.32858 11.4807 3.30727 11.4657 3.26464 11.4358C3.02443 11.267 2.90432 11.1825 2.84664 11.1371C0.883832 9.59224 1.88081 6.43989 4.37502 6.30459C4.44831 6.30061 4.59512 6.30061 4.88872 6.30061H5.24782C5.34245 6.30061 5.38976 6.30061 5.43283 6.29838C6.06915 6.26543 6.631 5.87257 6.88036 5.28621C6.89724 5.24653 6.91348 5.20209 6.94596 5.11321L6.98622 5.00304Z" fill="white"/>
</svg>
