<svg width="100" height="100" viewBox="0 0 100 100" fill="none" xmlns="http://www.w3.org/2000/svg">
<circle cx="50" cy="50" r="50" fill="white"/>
<mask id="mask0_55_1226" style="mask-type:luminance" maskUnits="userSpaceOnUse" x="25" y="26" width="50" height="49">
<path d="M74.0001 26H25V75H74.0001V26Z" fill="white"/>
</mask>
<g mask="url(#mask0_55_1226)">
<path fill-rule="evenodd" clip-rule="evenodd" d="M37.25 26C44.0154 26 49.5 31.4845 49.5 38.25V26H61.75C68.5154 26 74.0001 31.4845 74.0001 38.25C74.0001 45.0154 68.5154 50.4999 61.75 50.4999C68.5154 50.4999 74.0001 55.9845 74.0001 62.7499C74.0001 66.1093 72.6476 69.1527 70.4578 71.3658L70.412 71.412L70.3714 71.4525C68.1578 73.6454 65.1121 75 61.75 75C58.4107 75 55.3835 73.6638 53.1738 71.497C53.1451 71.4689 53.1164 71.4404 53.0879 71.412C53.0611 71.3852 53.0344 71.3582 53.0077 71.3312C50.8382 69.121 49.5 66.0917 49.5 62.7499C49.5 69.5153 44.0154 75 37.25 75C30.4845 75 25 69.5153 25 62.7499V50.4999H37.25C30.4845 50.4999 25 45.0154 25 38.25C25 31.4845 30.4845 26 37.25 26ZM47.05 38.25C47.05 43.6624 42.6624 48.05 37.25 48.05V28.45C42.6624 28.45 47.05 32.8376 47.05 38.25ZM71.5499 62.7499C71.5499 57.3375 67.1623 52.9499 61.75 52.9499C56.3375 52.9499 51.95 57.3375 51.95 62.7499H71.5499ZM27.45 52.9499V62.7499C27.45 68.1624 31.8376 72.5499 37.25 72.5499C42.6624 72.5499 47.05 68.1624 47.05 62.7499V52.9499H27.45ZM51.95 48.05V28.45H61.75C67.1623 28.45 71.5499 32.8376 71.5499 38.25C71.5499 43.6624 67.1623 48.05 61.75 48.05H51.95Z" fill="#111111"/>
</g>
</svg>
