<svg width="194" height="148" viewBox="0 0 194 148" fill="none" xmlns="http://www.w3.org/2000/svg">
<path d="M71.9976 19.3735C77.1752 19.3735 81.3726 15.1762 81.3726 9.99854C81.3726 4.82087 77.1752 0.623535 71.9976 0.623535V19.3735ZM5.14222 119.254C6.62869 124.213 11.8543 127.029 16.814 125.542C21.7738 124.056 24.5894 118.83 23.1029 113.871L5.14222 119.254ZM180.748 19.375C185.925 19.375 190.123 15.1777 190.123 10C190.123 4.82233 185.925 0.625001 180.748 0.625001V19.375ZM113.892 119.255C115.379 124.215 120.604 127.03 125.564 125.544C130.524 124.057 133.339 118.832 131.853 113.872L113.892 119.255ZM3.24756 107.098C3.24756 129.499 21.6484 147.499 43.8726 147.499V128.749C31.8272 128.749 21.9976 118.968 21.9976 107.098H3.24756ZM65.7476 107.098C65.7476 118.968 55.9179 128.749 43.8726 128.749V147.499C66.0967 147.499 84.4976 129.499 84.4976 107.098H65.7476ZM43.8726 85.4481C55.9179 85.4481 65.7476 95.229 65.7476 107.098H84.4976C84.4976 84.6981 66.0967 66.6981 43.8726 66.6981V85.4481ZM43.8726 66.6981C21.6484 66.6981 3.24756 84.6981 3.24756 107.098H21.9976C21.9976 95.229 31.8272 85.4481 43.8726 85.4481V66.6981ZM71.9976 0.623535C51.3165 0.623535 33.2946 11.6263 20.7475 28.1201C8.20964 44.6018 0.747559 66.9537 0.747559 91.2485H19.4976C19.4976 70.6703 25.8382 52.3971 35.6704 39.4721C45.4935 26.5592 58.4091 19.3735 71.9976 19.3735V0.623535ZM0.747559 91.2485C0.747559 101.221 2.5657 110.657 5.14222 119.254L23.1029 113.871C20.9043 106.535 19.4976 98.9527 19.4976 91.2485H0.747559ZM111.998 107.1C111.998 129.5 130.398 147.5 152.623 147.5V128.75C140.577 128.75 130.748 118.969 130.748 107.1H111.998ZM174.498 107.1C174.498 118.969 164.668 128.75 152.623 128.75V147.5C174.847 147.5 193.248 129.5 193.248 107.1H174.498ZM152.623 85.4495C164.668 85.4495 174.498 95.2305 174.498 107.1H193.248C193.248 84.6995 174.847 66.6995 152.623 66.6995V85.4495ZM152.623 66.6995C130.398 66.6995 111.998 84.6995 111.998 107.1H130.748C130.748 95.2305 140.577 85.4495 152.623 85.4495V66.6995ZM180.748 0.625001C160.066 0.625001 142.045 11.6278 129.498 28.1215C116.96 44.6033 109.498 66.9551 109.498 91.25H128.248C128.248 70.6718 134.588 52.3986 144.42 39.4736C154.243 26.5607 167.159 19.375 180.748 19.375V0.625001ZM109.498 91.25C109.498 101.223 111.316 110.658 113.892 119.255L131.853 113.872C129.654 106.536 128.248 98.9541 128.248 91.25H109.498Z" fill="#3A6A97"/>
</svg>
