<svg width="100" height="100" viewBox="0 0 100 100" fill="none" xmlns="http://www.w3.org/2000/svg">
<circle cx="50" cy="50" r="50" fill="#FFDECC"/>
<path fill-rule="evenodd" clip-rule="evenodd" d="M40.8449 19.7798C37.4154 19.7798 34.1265 21.1352 31.7015 23.5479L20 35.1899V40.5189C20 44.2839 21.6255 47.671 24.2162 50.0237C21.6255 52.3763 20 55.7635 20 59.5284V64.8574L31.7015 76.4995C34.1265 78.9122 37.4154 80.2676 40.8449 80.2676C44.629 80.2676 48.0335 78.6505 50.3981 76.0727C52.7628 78.6505 56.1672 80.2676 59.9514 80.2676C63.3809 80.2676 66.6698 78.9122 69.0949 76.4995L80.7966 64.8574V59.5284C80.7966 55.7635 79.1709 52.3763 76.5801 50.0237C79.1709 47.671 80.7966 44.2839 80.7966 40.5189V35.1899L69.0949 23.5479C66.6698 21.1352 63.3809 19.7798 59.9514 19.7798C56.1672 19.7798 52.7628 21.397 50.3981 23.9746C48.0335 21.397 44.629 19.7798 40.8449 19.7798ZM59.151 50.0237C59.0052 49.8914 58.8622 49.7554 58.7221 49.616L50.3981 41.3343L42.0742 49.616C41.9341 49.7554 41.7911 49.8914 41.6453 50.0237C41.7911 50.156 41.9341 50.292 42.0742 50.4313L50.3981 58.7131L58.7221 50.4313C58.8622 50.292 59.0052 50.156 59.151 50.0237ZM53.7757 64.8574V67.4024C53.7757 70.7958 56.5407 73.5468 59.9514 73.5468C61.5893 73.5468 63.1601 72.8994 64.3182 71.7471L74.0412 62.0734V59.5284C74.0412 56.135 71.2762 53.3841 67.8656 53.3841C66.2277 53.3841 64.6568 54.0314 63.4987 55.1838L53.7757 64.8574ZM47.0206 64.8574L37.2976 55.1838C36.1394 54.0314 34.5687 53.3841 32.9308 53.3841C29.5201 53.3841 26.7552 56.135 26.7552 59.5284V62.0734L36.4781 71.7471C37.6363 72.8994 39.2071 73.5468 40.8449 73.5468C44.2556 73.5468 47.0206 70.7958 47.0206 67.4024V64.8574ZM47.0206 32.645V35.1899L37.2976 44.8636C36.1394 46.0159 34.5687 46.6633 32.9308 46.6633C29.5201 46.6633 26.7552 43.9123 26.7552 40.5189V37.9739L36.4781 28.3003C37.6363 27.148 39.2071 26.5006 40.8449 26.5006C44.2556 26.5006 47.0206 29.2516 47.0206 32.645ZM63.4987 44.8636L53.7757 35.1899V32.645C53.7757 29.2516 56.5407 26.5006 59.9514 26.5006C61.5893 26.5006 63.1601 27.148 64.3182 28.3003L74.0412 37.9739V40.5189C74.0412 43.9123 71.2762 46.6633 67.8656 46.6633C66.2277 46.6633 64.6568 46.0159 63.4987 44.8636Z" fill="#FF630B"/>
</svg>
