<svg width="100" height="100" viewBox="0 0 100 100" fill="none" xmlns="http://www.w3.org/2000/svg">
<circle cx="50" cy="50" r="50" fill="#D3D4FF"/>
<path fill-rule="evenodd" clip-rule="evenodd" d="M48.1519 22.0381C33.024 22.8202 21 35.2638 21 50.4996C21 65.7354 33.0241 78.179 48.1519 78.961C44.0821 71.2188 41.6386 61.3055 41.6386 50.4995C41.6386 39.6935 44.0821 29.7803 48.1519 22.0381Z" fill="#0C11E8"/>
<path fill-rule="evenodd" clip-rule="evenodd" d="M48.1467 22.0393C48.6494 22.0132 49.1555 22 49.6647 22C65.227 22 77.8928 34.3304 78.3186 49.7012C77.8157 49.7273 77.3096 49.7405 76.8004 49.7405C61.2381 49.7405 48.5724 37.4101 48.1467 22.0393Z" fill="#0C11E8"/>
<path fill-rule="evenodd" clip-rule="evenodd" d="M48.1467 78.9605C48.6494 78.9865 49.1555 78.9997 49.6647 78.9997C65.227 78.9997 77.8928 66.6694 78.3181 51.2986C77.8157 51.2724 77.3096 51.2593 76.8004 51.2593C61.2381 51.2593 48.5724 63.5897 48.1467 78.9605Z" fill="#0C11E8"/>
</svg>
