<svg width="50" height="50" viewBox="0 0 50 50" fill="none" xmlns="http://www.w3.org/2000/svg">
<path d="M45.1872 19.2045C43.8573 30.4856 30.8645 40.4997 26.46 43.5945C25.8743 44.006 25.5815 44.2118 25.1966 44.2605C25.0807 44.2752 24.9334 44.2758 24.8174 44.2621C24.4321 44.2166 24.1376 44.0133 23.5486 43.6068C19.0857 40.5263 5.86197 30.5007 4.81105 19.2053C3.35306 5.83267 17.7288 1.70734 25.02 10.0428C32.3116 1.70313 46.6851 5.82813 45.1872 19.2045Z" fill="#3A6A97" fill-opacity="0.18"/>
<path d="M6.25 30.2083H9.52852C10.3676 30.2083 10.7871 30.2083 11.1594 30.0595C11.2821 30.0105 11.3998 29.9499 11.511 29.8786C11.8485 29.6621 12.0923 29.3208 12.58 28.638L13.9222 26.7589C15.017 25.2262 15.5644 24.4598 16.3046 24.2724C16.5799 24.2027 16.8666 24.19 17.147 24.2352C17.9008 24.3565 18.5137 25.0716 19.7396 26.5017C21.0022 27.9747 21.6335 28.7113 22.4034 28.8253C22.6894 28.8677 22.981 28.8501 23.2598 28.7736C24.0104 28.5677 24.5485 27.7606 25.6247 26.1463L27.9176 22.7069C29.2354 20.7303 29.8942 19.742 30.7744 19.5885C31.0524 19.5401 31.3375 19.5486 31.6122 19.6137C32.4815 19.8195 33.08 20.8455 34.277 22.8975L37.4564 28.3478C37.926 29.153 38.1609 29.5556 38.5182 29.8137C38.6357 29.8986 38.7618 29.971 38.8943 30.0297C39.2974 30.2083 39.7634 30.2083 40.6956 30.2083H43.75" stroke="#3A6A97" stroke-width="3.125" stroke-linecap="round" stroke-linejoin="round"/>
</svg>
