<svg width="50" height="50" viewBox="0 0 50 50" fill="none" xmlns="http://www.w3.org/2000/svg">
<path d="M16.6665 37.5V31.25M24.9998 27.0833V37.5M33.3332 37.5V22.9167M13.5415 23.9583L16.5928 20.3985C18.5737 18.0874 21.6325 17.0014 24.6274 17.5459C28.7749 18.3 33.0285 16.9713 36.0094 13.9905L36.4582 13.5417" stroke="#3A6A97" stroke-width="3.125" stroke-linecap="round" stroke-linejoin="round"/>
<path d="M27.5 4.6875H22.5C15.0787 4.6875 11.368 4.6875 8.76671 6.57744C7.9266 7.18781 7.18781 7.9266 6.57744 8.76671C4.6875 11.368 4.6875 15.0787 4.6875 22.5V27.5C4.6875 34.9213 4.6875 38.632 6.57744 41.2333C7.18781 42.0734 7.9266 42.8122 8.76671 43.4226C11.368 45.3125 15.0787 45.3125 22.5 45.3125H27.5C34.9213 45.3125 38.632 45.3125 41.2333 43.4226C42.0734 42.8122 42.8122 42.0734 43.4226 41.2333C45.3125 38.632 45.3125 34.9213 45.3125 27.5V22.5C45.3125 15.0787 45.3125 11.368 43.4226 8.76671C42.8122 7.9266 42.0734 7.18781 41.2333 6.57744C38.632 4.6875 34.9213 4.6875 27.5 4.6875Z" fill="#3A6A97" fill-opacity="0.18"/>
</svg>
