<svg width="296" height="287" viewBox="0 0 296 287" fill="none" xmlns="http://www.w3.org/2000/svg">
<path d="M33.824 94.6567C31.0898 105.219 31.0898 118.943 31.0898 143.502C31.0898 171.336 31.0898 185.253 35.0708 196.424C42.0183 215.919 57.3992 231.259 76.9477 238.187C88.1492 242.157 102.104 242.157 130.013 242.157H165.986C193.895 242.157 207.85 242.157 219.051 238.187C238.6 231.259 253.981 215.919 260.929 196.424C264.91 185.253 264.91 171.336 264.91 143.502C264.91 118.943 264.91 105.22 262.175 94.6567L216.995 127.859C203.639 137.674 193.114 145.409 183.996 150.889C174.653 156.504 166.159 160.154 156.738 161.354C150.939 162.093 145.07 162.093 139.272 161.355C129.851 160.155 121.356 156.506 112.013 150.891C102.894 145.411 92.3697 137.676 79.0134 127.863L33.824 94.6567Z" fill="#3A6A97" fill-opacity="0.2"/>
<path d="M41.1836 77.7827L89.3215 113.155C103.117 123.292 112.976 130.526 121.296 135.526C129.474 140.441 135.53 142.794 141.549 143.56C145.834 144.106 150.173 144.106 154.459 143.56C160.477 142.793 166.533 140.44 174.711 135.525C183.031 130.524 192.89 123.29 206.685 113.153L254.814 77.7828C246.65 64.443 234.083 54.1419 219.051 48.8139C207.85 44.8437 193.895 44.8438 165.985 44.8438H130.012C102.103 44.8438 88.1482 44.8437 76.9471 48.8139C61.9151 54.1419 49.3474 64.4429 41.1836 77.7827Z" fill="#3A6A97"/>
</svg>
