<svg width="24" height="24" viewBox="0 0 24 24" fill="none" xmlns="http://www.w3.org/2000/svg">
<path d="M11 10.5V16.5V13.9375C11 12.039 12.539 10.5 14.4375 10.5V10.5C15.5766 10.5 16.5 11.4234 16.5 12.5625V16.5M7.5 10.5V16.5" stroke="#111111" stroke-width="1.5" stroke-linecap="round" stroke-linejoin="round"/>
<path d="M8.5 7.5C8.5 8.05228 8.05228 8.5 7.5 8.5C6.94772 8.5 6.5 8.05228 6.5 7.5C6.5 6.94772 6.94772 6.5 7.5 6.5C8.05228 6.5 8.5 6.94772 8.5 7.5Z" fill="#111111"/>
<path d="M2.25 10.8C2.25 7.23775 2.25 5.45663 3.15717 4.20802C3.45015 3.80477 3.80477 3.45015 4.20802 3.15717C5.45663 2.25 7.23775 2.25 10.8 2.25H13.2C16.7622 2.25 18.5434 2.25 19.792 3.15717C20.1952 3.45015 20.5499 3.80477 20.8428 4.20802C21.75 5.45663 21.75 7.23775 21.75 10.8V13.2C21.75 16.7622 21.75 18.5434 20.8428 19.792C20.5499 20.1952 20.1952 20.5499 19.792 20.8428C18.5434 21.75 16.7622 21.75 13.2 21.75H10.8C7.23775 21.75 5.45663 21.75 4.20802 20.8428C3.80477 20.5499 3.45015 20.1952 3.15717 19.792C2.25 18.5434 2.25 16.7622 2.25 13.2V10.8Z" fill="#111111" fill-opacity="0.18"/>
</svg>
