<svg width="24" height="24" viewBox="0 0 24 24" fill="none" xmlns="http://www.w3.org/2000/svg">
<path fill-rule="evenodd" clip-rule="evenodd" d="M21.3839 4.38388C21.872 3.89573 21.872 3.10427 21.3839 2.61612C20.8957 2.12796 20.1043 2.12796 19.6161 2.61612L12.7073 9.52496L14.2842 11.4836L21.3839 4.38388ZM9.71834 12.5139L11.2957 14.472L4.38388 21.3839C3.89573 21.872 3.10427 21.872 2.61612 21.3839C2.12796 20.8957 2.12796 20.1043 2.61612 19.6161L9.71834 12.5139Z" fill="#111111"/>
<path d="M6.20375 2.25H4.27123C3.19398 2.25 2.65535 2.25 2.43015 2.53354C2.35991 2.62196 2.31056 2.7251 2.28575 2.83527C2.20622 3.18852 2.54412 3.60798 3.21992 4.44689L16.7533 21.2469C16.9299 21.4662 17.0183 21.5759 17.1347 21.645C17.1731 21.6678 17.2134 21.6871 17.2553 21.7027C17.3821 21.75 17.5229 21.75 17.8046 21.75H19.7299C20.8068 21.75 21.3453 21.75 21.5705 21.4665C21.6408 21.3781 21.6901 21.275 21.7149 21.1648C21.7945 20.8117 21.4568 20.3922 20.7814 19.5534L7.25528 2.75338C7.0786 2.53393 6.99026 2.4242 6.87384 2.35509C6.83543 2.33228 6.79505 2.31295 6.75319 2.29733C6.62635 2.25 6.48548 2.25 6.20375 2.25Z" fill="#111111" fill-opacity="0.18"/>
</svg>
