<svg width="24" height="24" viewBox="0 0 24 24" fill="none" xmlns="http://www.w3.org/2000/svg">
<path d="M13.5573 21.3204C14.2451 20.8085 15.174 20.072 16.1369 19.1733C18.0303 17.4062 20.1864 14.8931 20.7356 12.1471C21.8463 6.59263 17.3472 2.25 12.0001 2.25C6.65311 2.25 2.15361 6.5926 3.26469 12.1471C3.81397 14.8931 5.97011 17.4062 7.86344 19.1733C8.8263 20.072 9.75517 20.8085 10.443 21.3204C10.4887 21.3544 10.3745 21.2694 10.3908 21.2812C11.275 21.9193 12.7253 21.9193 13.6095 21.2812C13.6258 21.2694 13.5116 21.3544 13.5573 21.3204Z" fill="#3A6A97" fill-opacity="0.18"/>
<path d="M15.5 11.15C15.5 13.083 13.933 14.65 12 14.65C10.067 14.65 8.5 13.083 8.5 11.15C8.5 9.21703 10.067 7.65002 12 7.65002C13.933 7.65002 15.5 9.21703 15.5 11.15Z" fill="#3A6A97"/>
</svg>
