<svg width="24" height="24" viewBox="0 0 24 24" fill="none" xmlns="http://www.w3.org/2000/svg">
<path d="M17 3.80556V4.54167C17 5.00761 17 5.24058 16.9239 5.42435C16.8224 5.66938 16.6277 5.86405 16.3827 5.96555C16.1989 6.04167 15.9659 6.04167 15.5 6.04167C15.0341 6.04167 14.8011 6.04167 14.6173 6.11779C14.3723 6.21928 14.1776 6.41396 14.0761 6.65898C14 6.84275 14 7.07573 14 7.54167V9H10V7.69445C10 5.88086 10 4.97407 10.3279 4.27084C10.6757 3.52507 11.2751 2.92568 12.0208 2.57792C12.7241 2.25 13.6309 2.25 15.4444 2.25C15.9626 2.25 16.2217 2.25 16.4226 2.34369C16.6357 2.44305 16.8069 2.61431 16.9063 2.82738C17 3.02831 17 3.28739 17 3.80556Z" fill="#111111"/>
<path d="M11.8 21.75H12.2C12.9499 21.75 13.3249 21.75 13.5878 21.559C13.6727 21.4973 13.7473 21.4227 13.809 21.3378C14 21.0749 14 20.6999 14 19.95V13.625H15.2C15.9499 13.625 16.3249 13.625 16.5878 13.434C16.6727 13.3723 16.7473 13.2977 16.809 13.2128C17 12.9499 17 12.5749 17 11.825V11.6333C17 10.8834 17 10.5084 16.809 10.2455C16.7473 10.1607 16.6727 10.086 16.5878 10.0243C16.3249 9.83333 15.9499 9.83333 15.2 9.83333H14V9H10V9.83333H8.8C8.05005 9.83333 7.67508 9.83333 7.41221 10.0243C7.32732 10.086 7.25266 10.1607 7.19098 10.2455C7 10.5084 7 10.8834 7 11.6333V11.825C7 12.5749 7 12.9499 7.19098 13.2128C7.25266 13.2977 7.32732 13.3723 7.41221 13.434C7.67508 13.625 8.05005 13.625 8.8 13.625H10V19.95C10 20.6999 10 21.0749 10.191 21.3378C10.2527 21.4227 10.3273 21.4973 10.4122 21.559C10.6751 21.75 11.0501 21.75 11.8 21.75Z" fill="#111111" fill-opacity="0.18"/>
</svg>
