<svg width="186" height="50" viewBox="0 0 186 50" fill="none" xmlns="http://www.w3.org/2000/svg">
<g clip-path="url(#clip0_261_321)">
<path d="M25.001 50.0004C38.8081 50.0004 50.001 38.8075 50.001 25.0004C50.001 18.788 47.735 13.1049 43.9846 8.73242L8.73303 43.984C13.1055 47.7345 18.7886 50.0004 25.001 50.0004Z" fill="white"/>
<path d="M41.2646 6.01271C36.8927 2.26445 31.2113 0 25.001 0C11.1939 0 0.000976562 11.1929 0.000976562 25C0.000976562 31.2103 2.26543 36.8917 6.01368 41.2636L41.2646 6.01271Z" fill="white"/>
<path d="M71.0316 36.7503H65.1436L74.1036 14.3503H79.3196L88.4396 36.7503H82.1996L80.9196 33.4543H72.3116L71.0316 36.7503ZM74.0396 28.8143H79.2236L76.6316 21.2943L74.0396 28.8143ZM95.6626 20.5903L96.0786 23.9183C97.4546 22.2863 99.4386 21.1023 101.199 20.5903L101.679 26.0303C99.6626 26.0623 97.8386 26.5423 96.3346 27.5983V36.7503H91.1186V26.8623L90.4466 21.0703L95.6626 20.5903ZM105.439 30.7343V25.2303H103.263V20.7503H105.567L105.919 16.8463L110.655 16.3983V20.7503H115.327L114.847 25.2303H110.655V30.2543C110.655 31.6303 111.231 32.2703 112.223 32.2703C112.799 32.2703 113.631 32.1103 114.495 31.5983L116.287 35.7263C114.911 36.6223 113.215 37.0703 111.391 37.0703C107.839 37.0703 105.439 35.1503 105.439 30.7343ZM121.397 19.1183C119.733 19.1183 118.389 17.7423 118.389 16.0783C118.389 14.4143 119.733 13.0703 121.397 13.0703C123.093 13.0703 124.437 14.4143 124.437 16.0783C124.437 17.7423 123.093 19.1183 121.397 19.1183ZM124.021 20.5903V36.7503H118.805V21.0703L124.021 20.5903ZM133.875 26.0943L136.019 26.6063C139.059 27.3423 140.627 28.9103 140.627 31.6623C140.627 34.8943 138.259 37.0703 133.939 37.0703C131.443 37.0703 129.011 36.4623 126.995 35.2783L128.691 31.5023C130.483 32.3983 132.211 32.9103 133.779 32.9103C134.835 32.9103 135.347 32.6543 135.347 32.0783C135.347 31.5663 135.123 31.4063 134.227 31.1823L132.083 30.6703C129.011 29.9343 127.475 28.3983 127.475 25.8383C127.475 22.6063 129.811 20.4303 134.003 20.4303C136.435 20.4303 138.579 21.1023 140.467 22.2223L138.771 25.9983C137.107 25.0383 135.667 24.5903 134.131 24.5903C133.203 24.5903 132.755 24.8143 132.755 25.2623C132.755 25.7103 133.011 25.9023 133.875 26.0943ZM144.064 30.7343V25.2303H141.888V20.7503H144.192L144.544 16.8463L149.28 16.3983V20.7503H153.952L153.472 25.2303H149.28V30.2543C149.28 31.6303 149.856 32.2703 150.848 32.2703C151.424 32.2703 152.256 32.1103 153.12 31.5983L154.912 35.7263C153.536 36.6223 151.84 37.0703 150.016 37.0703C146.464 37.0703 144.064 35.1503 144.064 30.7343ZM162.006 20.5903L162.422 23.9183C163.798 22.2863 165.782 21.1023 167.542 20.5903L168.022 26.0303C166.006 26.0623 164.182 26.5423 162.678 27.5983V36.7503H157.462V26.8623L156.79 21.0703L162.006 20.5903ZM169.909 39.3103C172.469 39.3103 173.781 38.7023 174.357 37.2943L174.485 36.9423L168.437 20.7503H174.037L177.013 30.3183L180.117 20.7503H185.525L181.333 31.9823L179.349 37.2943C177.717 41.7103 175.317 43.7263 171.189 44.1103L169.909 39.3103Z" fill="white"/>
</g>
<defs>
<clipPath id="clip0_261_321">
<rect width="186" height="50" fill="white"/>
</clipPath>
</defs>
</svg>
