<svg width="50" height="50" viewBox="0 0 50 50" fill="none" xmlns="http://www.w3.org/2000/svg">
<path d="M26.5626 6.25C26.5626 5.38706 25.863 4.6875 25.0001 4.6875C24.1371 4.6875 23.4376 5.38706 23.4376 6.25H26.5626ZM16.6667 42.1875C15.8038 42.1875 15.1042 42.8871 15.1042 43.75C15.1042 44.6129 15.8038 45.3125 16.6667 45.3125V42.1875ZM33.3334 45.3125C34.1964 45.3125 34.8959 44.6129 34.8959 43.75C34.8959 42.8871 34.1964 42.1875 33.3334 42.1875V45.3125ZM25.0001 42.1875H16.6667V45.3125H25.0001V42.1875ZM25.0001 45.3125H33.3334V42.1875H25.0001V45.3125ZM26.5626 8.85417V6.25H23.4376V8.85417H26.5626ZM26.5626 23.4375V20.3125H23.4376V23.4375H26.5626ZM26.5626 43.75V34.8958H23.4376V43.75H26.5626Z" fill="#3A6A97"/>
<path d="M22.9174 8.85425C20.9738 8.85425 20.0019 8.85425 19.2522 9.2153C18.5081 9.57366 17.9076 10.1741 17.5493 10.9182C17.1882 11.6679 17.1882 12.6398 17.1882 14.5834C17.1882 16.5271 17.1882 17.4989 17.5493 18.2486C17.9076 18.9928 18.5081 19.5932 19.2522 19.9515C20.0019 20.3126 20.9737 20.3126 22.9174 20.3126H38.1039C38.5377 20.3126 38.7545 20.3126 38.959 20.256C39.0268 20.2373 39.0932 20.214 39.1578 20.1863C39.3528 20.1027 39.5222 19.9672 39.8609 19.6963L43.5067 16.7796C44.6248 15.8851 45.1839 15.4379 45.2882 14.8619C45.3216 14.6778 45.3216 14.4891 45.2882 14.3049C45.1839 13.729 44.6248 13.2817 43.5067 12.3872L39.8609 9.47055C39.5222 9.19959 39.3528 9.06411 39.1578 8.98055C39.0932 8.95286 39.0268 8.92956 38.959 8.91081C38.7545 8.85425 38.5377 8.85425 38.1039 8.85425H22.9174Z" fill="#687F95" fill-opacity="0.58"/>
<path d="M11.5687 23.4375C11.2795 23.4375 11.1349 23.4375 10.9986 23.4752C10.9534 23.4877 10.9092 23.5032 10.8661 23.5217C10.7361 23.5774 10.6232 23.6677 10.3974 23.8484L6.49475 26.9705C5.37664 27.8649 4.81759 28.3122 4.71326 28.8881C4.67989 29.0723 4.67989 29.261 4.71326 29.4452C4.81759 30.0211 5.37664 30.4684 6.49475 31.3628L10.3974 34.4849C10.6232 34.6656 10.7361 34.7559 10.8661 34.8116C10.9092 34.8301 10.9534 34.8456 10.9986 34.8581C11.1349 34.8958 11.2795 34.8958 11.5687 34.8958H27.0841C29.0277 34.8958 29.9995 34.8958 30.7493 34.5348C31.4934 34.1764 32.0938 33.576 32.4522 32.8318C32.8132 32.0821 32.8132 31.1103 32.8132 29.1666C32.8132 27.223 32.8132 26.2512 32.4522 25.5014C32.0938 24.7573 31.4934 24.1569 30.7493 23.7985C29.9995 23.4375 29.0277 23.4375 27.0841 23.4375H11.5687Z" fill="#687F95" fill-opacity="0.58"/>
</svg>
