<svg width="50" height="50" viewBox="0 0 50 50" fill="none" xmlns="http://www.w3.org/2000/svg">
<path d="M17.7083 39.0625C17.7083 38.5771 17.7083 38.3345 17.7875 38.143C17.8933 37.8878 18.0961 37.685 18.3513 37.5793C18.5427 37.5 18.7854 37.5 19.2708 37.5H30.7291C31.2144 37.5 31.4571 37.5 31.6485 37.5793C31.9038 37.685 32.1066 37.8878 32.2123 38.143C32.2916 38.3345 32.2916 38.5771 32.2916 39.0625C32.2916 41.0039 32.2916 41.9746 31.9744 42.7403C31.5515 43.7613 30.7404 44.5724 29.7194 44.9953C28.9537 45.3125 27.983 45.3125 26.0416 45.3125H23.9582C22.0168 45.3125 21.0461 45.3125 20.2804 44.9953C19.2595 44.5724 18.4483 43.7613 18.0254 42.7403C17.7083 41.9746 17.7083 41.0039 17.7083 39.0625Z" fill="#3A6A97"/>
<path d="M18.8364 34.375H31.1636C31.2632 34.375 31.313 34.375 31.3549 34.3716C31.8638 34.3304 32.2679 33.9264 32.3091 33.4174C32.3125 33.3755 32.3125 33.3257 32.3125 33.2261V32.764C32.3125 32.0477 32.5498 31.3517 32.9874 30.7846L35.9432 26.9541C42.955 17.8672 36.4777 4.6875 25 4.6875C13.5223 4.6875 7.04494 17.8672 14.0568 26.9541L17.0126 30.7846C17.4502 31.3517 17.6875 32.0477 17.6875 32.764V33.2261C17.6875 33.3257 17.6875 33.3755 17.6909 33.4174C17.7321 33.9264 18.1361 34.3304 18.6451 34.3716C18.687 34.375 18.7368 34.375 18.8364 34.375Z" fill="#3A6A97" fill-opacity="0.58"/>
<path d="M21.875 23.9583L25 29.1666L28.125 23.9583" stroke="#3A6A97" stroke-width="3.125" stroke-linecap="round" stroke-linejoin="round"/>
</svg>
