<svg width="50" height="50" viewBox="0 0 50 50" fill="none" xmlns="http://www.w3.org/2000/svg">
<path fill-rule="evenodd" clip-rule="evenodd" d="M16.2802 15.1209C17.2792 15.1042 18.4193 15.1042 19.7387 15.1042H30.1554C31.5217 15.1042 32.6958 15.1042 33.7199 15.1227C32.9895 10.9688 29.3633 7.8125 24.9999 7.8125C20.6372 7.8125 17.0114 10.9678 16.2802 15.1209ZM36.9032 15.3108C37.8531 15.4331 38.6324 15.6278 39.3388 15.9377C41.6127 16.9351 43.4286 18.751 44.426 21.0249C45.2595 22.9251 45.2595 25.3528 45.2595 30.2083C45.2595 35.0638 45.2595 37.4916 44.426 39.3918C43.4286 41.6657 41.6127 43.4816 39.3388 44.479C37.4386 45.3125 35.0109 45.3125 30.1554 45.3125H19.7387C14.8832 45.3125 12.4554 45.3125 10.5552 44.479C8.28131 43.4816 6.46545 41.6657 5.46801 39.3918C4.63452 37.4916 4.63452 35.0638 4.63452 30.2083C4.63452 25.3528 4.63452 22.9251 5.46801 21.0249C6.46545 18.751 8.28131 16.9351 10.5552 15.9377C11.2881 15.6162 12.0994 15.4187 13.0982 15.2974C13.7776 9.32632 18.847 4.6875 24.9999 4.6875C31.1574 4.6875 36.2298 9.33327 36.9032 15.3108Z" fill="#687F95" fill-opacity="0.58"/>
<path fill-rule="evenodd" clip-rule="evenodd" d="M26.5625 33.6384C28.9672 32.9582 30.7291 30.7473 30.7291 28.1249C30.7291 24.9608 28.1641 22.3958 24.9999 22.3958C21.8358 22.3958 19.2708 24.9608 19.2708 28.1249C19.2708 30.7474 21.0328 32.9583 23.4375 33.6384V37.5C23.4375 38.3629 24.1371 39.0625 25 39.0625C25.8629 39.0625 26.5625 38.3629 26.5625 37.5V33.6384Z" fill="#3A6A97"/>
</svg>
