<svg width="226" height="50" viewBox="0 0 226 50" fill="none" xmlns="http://www.w3.org/2000/svg">
<path d="M49.8662 12.0628C50.4925 9.60598 49.0085 7.10655 46.5516 6.48027C44.0946 5.854 41.5952 7.33803 40.9689 9.79496C40.3427 12.2518 41.8267 14.7513 44.2836 15.3775C46.7405 16.0038 49.24 14.5198 49.8662 12.0628Z" fill="white"/>
<path d="M34.4477 7.94653C38.6903 2.65247 31.2517 -2.66863 27.3643 2.18103C27.1462 2.39964 1.93816 33.4662 1.76756 33.725C-2.71176 39.314 4.41427 45.0255 8.85093 39.4905C9.06885 39.2717 34.2771 8.20507 34.4477 7.94653Z" fill="white"/>
<path d="M40.0007 24.8616C44.0722 19.7814 36.9464 14.0701 32.9194 19.0942C32.6994 19.3142 15.5752 40.4938 15.4032 40.7547C11.3049 46.0625 18.4307 51.7737 22.4845 46.522C22.7045 46.302 39.829 25.1224 40.0007 24.8616Z" fill="white"/>
<path d="M8.55584 15.2138C10.9255 14.3122 12.1156 11.6603 11.214 9.29055C10.3124 6.92085 7.66044 5.73074 5.29074 6.63238C2.92103 7.53401 1.73093 10.186 2.63256 12.5557C3.53419 14.9254 6.18614 16.1155 8.55584 15.2138Z" fill="white"/>
<path d="M71.8956 36.85L65.0796 13.938H67.4796L72.1196 29.682C72.4396 30.802 72.7276 31.954 73.0156 33.458C73.3996 31.794 73.7196 30.802 74.0716 29.682L79.0636 13.938H81.4636L86.4556 29.682C86.8076 30.834 87.1276 31.986 87.4796 33.458C87.8316 31.698 88.1196 30.578 88.3756 29.714L93.1116 13.938H95.4476L88.5676 36.85H86.3916L80.2476 17.394L74.1036 36.85H71.8956ZM96.4774 36.85H94.1414L102.557 13.938H105.405L113.917 36.85H111.517L109.277 30.77H98.7174L96.4774 36.85ZM103.677 17.17L99.4214 28.754H108.541L104.253 17.17C104.157 16.85 103.997 16.466 103.965 16.242C103.933 16.434 103.805 16.85 103.677 17.17ZM120.227 27.282L112.451 13.938H115.043L120.707 23.826C120.963 24.306 121.155 24.69 121.379 25.202C121.667 24.626 121.667 24.626 122.083 23.826L127.683 13.938H130.211L122.531 27.282V36.85H120.227V27.282ZM137.225 13.458V33.074H147.017V36.85H133.129V13.458H137.225ZM154.444 13.458V36.85H150.348V13.458H154.444ZM163.661 36.85H159.629V13.458H163.693L174.669 30.034V13.458H178.701V36.85H174.669L163.661 20.274V36.85ZM198.407 36.85H183.879V13.458H198.407V17.234H187.975V23.25H197.319V26.866H187.975V33.074H198.407V36.85Z" fill="white"/>
</svg>
