<svg width="50" height="51" viewBox="0 0 50 51" fill="none" xmlns="http://www.w3.org/2000/svg">
<path d="M25.1588 22.4778C29.2828 22.4778 32.6259 19.1346 32.6259 15.0105C32.6259 10.8867 29.2828 7.54346 25.1588 7.54346C21.0348 7.54346 17.6917 10.8867 17.6917 15.0105C17.6917 19.1346 21.0348 22.4778 25.1588 22.4778Z" fill="#3A6A97" fill-opacity="0.58"/>
<path d="M41.4099 35.408C40.2684 31.7252 39.6978 29.8838 38.4187 28.6628C38.0009 28.264 37.5342 27.92 37.0297 27.639C35.4848 26.7788 33.5569 26.7788 29.7013 26.7788H20.6165C16.7608 26.7788 14.833 26.7788 13.2881 27.639C12.7836 27.92 12.3168 28.264 11.8991 28.6628C10.62 29.8838 10.0492 31.7252 8.90787 35.408L8.82329 35.6812C7.88221 38.7177 7.41167 40.236 7.96049 41.3779C8.13526 41.7418 8.37684 42.0696 8.67261 42.3442C9.60092 43.2065 11.1905 43.2065 14.3694 43.2065H35.9483C39.1274 43.2065 40.7169 43.2065 41.6452 42.3442C41.941 42.0696 42.1824 41.7418 42.3573 41.3779C42.9061 40.236 42.4356 38.7177 41.4945 35.6812L41.4099 35.408Z" fill="#3A6A97"/>
</svg>
