<svg width="30" height="30" viewBox="0 0 30 30" fill="none" xmlns="http://www.w3.org/2000/svg">
<path d="M2.8125 11.7188C2.8125 8.94593 2.8125 7.55953 3.38054 6.51332C3.81295 5.71693 4.46693 5.06295 5.26332 4.63054C6.30953 4.0625 7.69593 4.0625 10.4688 4.0625H19.5312C22.3041 4.0625 23.6905 4.0625 24.7367 4.63054C25.5331 5.06295 26.1871 5.71693 26.6195 6.51332C27.1875 7.55953 27.1875 8.94593 27.1875 11.7188C27.1875 14.4916 27.1875 15.878 26.6195 16.9242C26.1871 17.7206 25.5331 18.3746 24.7367 18.807C23.6905 19.375 22.3041 19.375 19.5312 19.375H10.4688C7.69593 19.375 6.30953 19.375 5.26332 18.807C4.46693 18.3746 3.81295 17.7206 3.38054 16.9242C2.8125 15.878 2.8125 14.4916 2.8125 11.7188Z" fill="white" fill-opacity="0.5"/>
<path d="M14.1158 21.4818C14.4972 21.247 14.688 21.1296 14.897 21.1065C14.9656 21.0989 15.0348 21.0989 15.1034 21.1065C15.3124 21.1296 15.5032 21.247 15.8846 21.4818L18.0476 22.8128C19.8554 23.9253 20.7593 24.4816 20.7503 25.0158C20.7476 25.1785 20.7025 25.3378 20.6196 25.4778C20.3472 25.9375 19.2859 25.9375 17.1632 25.9375H12.8372C10.7145 25.9375 9.65316 25.9375 9.38085 25.4778C9.29788 25.3378 9.25281 25.1785 9.25007 25.0158C9.24108 24.4816 10.145 23.9253 11.9528 22.8128L14.1158 21.4818Z" fill="white"/>
</svg>
