<svg width="192" height="50" viewBox="0 0 192 50" fill="none" xmlns="http://www.w3.org/2000/svg">
<g clip-path="url(#clip0_261_340)">
<path d="M8.51064 35.6422C8.51064 41.1269 1.37903e-06 41.1269 1.13928e-06 35.6422L0 4.57835C-2.3975e-07 -0.906326 8.51064 -0.906326 8.51064 4.57835V35.6422Z" fill="#111111"/>
<path d="M22.3407 45.7447C22.3407 51.2294 13.8301 51.2294 13.8301 45.7447V14.6809C13.8301 9.19622 22.3407 9.19622 22.3407 14.6809V45.7447Z" fill="#111111"/>
<path d="M36.1698 35.6422C36.1698 41.1269 27.6592 41.1269 27.6592 35.6422V4.57835C27.6592 -0.906326 36.1698 -0.906326 36.1698 4.57835V35.6422Z" fill="#111111"/>
<path d="M49.9999 45.7447C49.9999 51.2294 41.4893 51.2294 41.4893 45.7447V15.6809C41.4893 10.1962 49.9999 10.1962 49.9999 15.6809V45.7447Z" fill="#111111"/>
<path d="M80.292 32.1439V36.4999H65.211V13.3999H80.292V17.7559H70.326V22.8709H78.972V27.0289H70.326V32.1439H80.292ZM89.0788 36.4999H84.0958V19.3069H88.2868L88.6828 21.6499C90.2998 19.9009 92.2138 19.0099 94.5568 19.0099C96.6688 19.0099 98.0878 19.6369 98.9788 20.8249C99.2428 21.1549 99.4408 21.4849 99.6058 21.8809C101.289 19.9339 103.203 19.0099 105.579 19.0099C107.757 19.0099 109.209 19.6369 110.1 20.8249C111.024 22.0459 111.288 23.4649 111.288 26.9629V36.4999H106.338V28.0849C106.338 26.1049 106.206 25.2469 105.678 24.5539C105.117 23.8939 104.358 23.6299 103.17 23.6299C102.081 23.6299 101.124 23.9599 100.134 24.7849C100.2 25.4119 100.2 26.1049 100.2 26.9629V36.4999H95.2168V28.0849C95.2168 26.1049 95.1178 25.2469 94.5568 24.5539C94.0288 23.8939 93.2698 23.6299 92.1478 23.6299C90.9268 23.6299 89.8048 24.0589 89.0788 24.8179V36.4999ZM123.498 36.7639C122.211 36.7639 120.825 36.5329 119.505 36.0379L115.71 36.4999V11.4199H120.693V21.5509C121.914 19.8679 123.564 18.9769 125.808 18.9769C129.636 18.9769 132.21 21.8479 132.21 27.2269C132.21 33.3649 128.712 36.7639 123.498 36.7639ZM120.693 25.6429V32.3089C121.452 32.6389 122.178 32.7709 122.937 32.7709C125.346 32.7709 127.029 31.1869 127.029 27.7219C127.029 24.8179 125.775 23.3989 123.96 23.3989C122.508 23.3989 121.452 24.1909 120.693 25.6429ZM140.351 36.4999H135.368V11.4199H140.351V36.4999ZM152.929 36.7639C146.659 36.7639 143.524 33.8599 143.524 27.8539C143.524 22.1119 147.418 18.9769 151.873 18.9769C156.592 18.9769 158.869 21.8149 158.869 26.7649C158.869 27.6889 158.803 28.5139 158.737 29.3389H148.606C149.101 31.9129 150.85 32.8039 154.051 32.8039C155.371 32.8039 156.724 32.6719 157.879 32.5069L157.648 36.4339C156.46 36.6319 154.843 36.7639 152.929 36.7639ZM151.741 22.6729C150.025 22.6729 148.771 23.8939 148.507 26.6329L154.15 26.3359C154.15 23.8279 153.391 22.6729 151.741 22.6729ZM167.196 36.4999H162.213V19.3069H166.404L166.8 21.6499C168.417 19.9009 170.331 19.0099 172.674 19.0099C174.786 19.0099 176.205 19.6369 177.096 20.8249C177.36 21.1549 177.558 21.4849 177.723 21.8809C179.406 19.9339 181.32 19.0099 183.696 19.0099C185.874 19.0099 187.326 19.6369 188.217 20.8249C189.141 22.0459 189.405 23.4649 189.405 26.9629V36.4999H184.455V28.0849C184.455 26.1049 184.323 25.2469 183.795 24.5539C183.234 23.8939 182.475 23.6299 181.287 23.6299C180.198 23.6299 179.241 23.9599 178.251 24.7849C178.317 25.4119 178.317 26.1049 178.317 26.9629V36.4999H173.334V28.0849C173.334 26.1049 173.235 25.2469 172.674 24.5539C172.146 23.8939 171.387 23.6299 170.265 23.6299C169.044 23.6299 167.922 24.0589 167.196 24.8179V36.4999Z" fill="#111111"/>
</g>
<defs>
<clipPath id="clip0_261_340">
<rect width="192" height="50" fill="white"/>
</clipPath>
</defs>
</svg>
