<svg width="260" height="40" viewBox="0 0 260 40" fill="none" xmlns="http://www.w3.org/2000/svg">
<path d="M0 39.3322L19.5659 0.0667811H32.7212L52.2204 39.3322H41.9366L37.9967 30.8514H14.0902L9.74958 39.3322H0ZM16.4942 24.3072H35.5259L26.3773 6.0768H25.7095L16.4942 24.3072Z" fill="#111111"/>
<path d="M55.5744 39.3322V32.8548L85.2238 6.47746H55.5744V0.0667811H97.0435V6.47746L66.7931 32.9215H96.7096L99.3807 38.5977C99.3807 38.7757 98.7797 38.9538 97.5777 39.1319C96.3757 39.2654 94.3056 39.3322 91.3674 39.3322H55.5744Z" fill="#111111"/>
<path d="M116.371 40C112.319 40 109.492 38.9093 107.89 36.7279C106.287 34.5465 105.486 31.6528 105.486 28.0467V0.0667811H114.3V28.3139C114.3 30.4062 114.812 31.8086 115.836 32.5209C116.86 33.2332 118.129 33.5893 119.643 33.5893H133.8C135.224 33.5893 136.471 33.2332 137.539 32.5209C138.608 31.7641 139.142 30.3617 139.142 28.3139V0.0667811H147.956V28.0467C147.956 30.4508 147.623 32.5431 146.955 34.3239C146.287 36.1046 145.174 37.507 143.616 38.5309C142.058 39.5103 139.899 40 137.138 40H116.371Z" fill="#111111"/>
<path d="M200.285 40C198.505 40 196.746 39.7329 195.01 39.1987C193.318 38.6199 191.382 37.2398 189.2 35.0584L184.392 30.2504C182.433 28.2471 180.274 26.778 177.915 25.8431C175.6 24.9082 172.684 24.4407 169.167 24.4407H167.097V39.3322H158.282V5.40902L157.614 0H187.197C190.046 0 192.272 0.378409 193.875 1.13523C195.522 1.89204 196.724 2.89371 197.481 4.14024C198.282 5.34224 198.794 6.63328 199.017 8.01336C199.239 9.39343 199.35 10.7067 199.35 11.9533V13.222C199.35 14.2014 199.217 15.2922 198.95 16.4942C198.683 17.6962 198.171 18.8759 197.414 20.0334C196.657 21.1909 195.566 22.1703 194.142 22.9716C192.762 23.773 190.936 24.2404 188.666 24.374C189.245 24.6856 189.979 25.1753 190.87 25.8431C191.76 26.4663 192.673 27.1564 193.608 27.9132C194.587 28.67 195.477 29.36 196.279 29.9833C197.08 30.6066 197.703 31.0518 198.148 31.3189C199.751 32.2538 201.176 32.8993 202.422 33.2554C203.669 33.6116 204.693 33.8119 205.494 33.8564C206.295 33.9009 206.763 33.9232 206.896 33.9232L205.561 39.3322C205.16 39.4658 204.492 39.5993 203.557 39.7329C202.623 39.911 201.532 40 200.285 40ZM177.113 18.3639C178.805 18.3639 180.319 18.3417 181.654 18.2972C182.99 18.2081 184.192 18.1191 185.26 18.0301C187.219 17.8075 188.577 17.2732 189.334 16.4274C190.135 15.537 190.536 14.4018 190.536 13.0217V11.4858C190.536 10.0612 190.157 8.85921 189.401 7.8798C188.644 6.90039 187.286 6.41069 185.327 6.41069H167.097V18.0301C169.056 18.1636 170.859 18.2526 172.506 18.2972C174.153 18.3417 175.689 18.3639 177.113 18.3639Z" fill="#111111"/>
<path d="M207.573 39.3322L227.138 0.0667811H240.294L259.793 39.3322H249.509L245.569 30.8514H221.663L217.322 39.3322H207.573ZM224.067 24.3072H243.098L233.95 6.0768H233.282L224.067 24.3072Z" fill="#111111"/>
</svg>
