<svg width="90" height="18" viewBox="0 0 90 18" fill="none" xmlns="http://www.w3.org/2000/svg">
<path d="M6.28772 4.50259C6.63414 3.55466 6.80735 3.0807 6.95838 2.8485C7.91969 1.37055 10.0837 1.37055 11.045 2.8485C11.196 3.0807 11.3692 3.55466 11.7156 4.50259L11.751 4.59947C11.7811 4.68164 11.7961 4.72272 11.8117 4.75939C12.0363 5.28539 12.5405 5.63791 13.1116 5.66829C13.1514 5.67041 13.1951 5.67041 13.2826 5.67041H13.6561C13.9065 5.67041 14.0317 5.67041 14.0932 5.67352C16.3635 5.7884 17.2546 8.67384 15.4445 10.0489C15.3954 10.0862 15.292 10.1567 15.0853 10.2979C15.0489 10.3228 15.0307 10.3352 15.0147 10.3467C14.4821 10.7313 14.2617 11.4177 14.4709 12.0405C14.4772 12.0592 14.4855 12.0821 14.5022 12.1278C14.6824 12.6207 14.7724 12.8671 14.8036 12.9917C15.3102 15.0172 13.2019 16.7007 11.3388 15.7583C11.2242 15.7003 11.0164 15.5661 10.6009 15.2977L9.96854 14.8892C9.82126 14.7941 9.74762 14.7465 9.67533 14.7102C9.25149 14.4971 8.75186 14.4971 8.32803 14.7102C8.25573 14.7465 8.18209 14.7941 8.03482 14.8892L7.41521 15.2895C6.9894 15.5645 6.77649 15.702 6.65892 15.7611C4.79864 16.696 2.69829 15.0189 3.19824 12.9979C3.22984 12.8701 3.32182 12.6184 3.50579 12.115C3.5234 12.0668 3.5322 12.0427 3.53887 12.0228C3.74399 11.4086 3.53183 10.7321 3.01271 10.3451C2.99585 10.3325 2.97667 10.319 2.9383 10.2921C2.72211 10.1401 2.61401 10.0641 2.5621 10.0233C0.795572 8.63287 1.69285 5.79576 3.93764 5.67399C4.0036 5.67041 4.13573 5.67041 4.39998 5.67041H4.72316C4.80832 5.67041 4.85091 5.67041 4.88967 5.6684C5.46236 5.63874 5.96802 5.28516 6.19245 4.75745C6.20764 4.72173 6.22225 4.68173 6.25149 4.60174L6.28772 4.50259Z" fill="#3A6A97"/>
<path d="M24.2877 4.50259C24.6341 3.55466 24.8073 3.0807 24.9584 2.8485C25.9197 1.37055 28.0837 1.37055 29.045 2.8485C29.196 3.0807 29.3692 3.55466 29.7156 4.50259L29.751 4.59947C29.7811 4.68164 29.7961 4.72272 29.8117 4.75939C30.0363 5.28539 30.5405 5.63791 31.1116 5.66829C31.1514 5.67041 31.1951 5.67041 31.2826 5.67041H31.6561C31.9065 5.67041 32.0317 5.67041 32.0932 5.67352C34.3635 5.7884 35.2546 8.67384 33.4445 10.0489C33.3954 10.0862 33.292 10.1567 33.0853 10.2979C33.0489 10.3228 33.0307 10.3352 33.0147 10.3467C32.4821 10.7313 32.2617 11.4177 32.4709 12.0405C32.4772 12.0592 32.4855 12.0821 32.5022 12.1278C32.6824 12.6207 32.7724 12.8671 32.8036 12.9917C33.3102 15.0172 31.2019 16.7007 29.3388 15.7583C29.2242 15.7003 29.0164 15.5661 28.6009 15.2977L27.9685 14.8892C27.8213 14.7941 27.7476 14.7465 27.6753 14.7102C27.2515 14.4971 26.7519 14.4971 26.328 14.7102C26.2557 14.7465 26.1821 14.7941 26.0348 14.8892L25.4152 15.2895C24.9894 15.5645 24.7765 15.702 24.6589 15.7611C22.7986 16.696 20.6983 15.0189 21.1982 12.9979C21.2298 12.8701 21.3218 12.6184 21.5058 12.115C21.5234 12.0668 21.5322 12.0427 21.5389 12.0228C21.744 11.4086 21.5318 10.7321 21.0127 10.3451C20.9958 10.3325 20.9767 10.319 20.9383 10.2921C20.7221 10.1401 20.614 10.0641 20.5621 10.0233C18.7956 8.63287 19.6929 5.79576 21.9376 5.67399C22.0036 5.67041 22.1357 5.67041 22.4 5.67041H22.7232C22.8083 5.67041 22.8509 5.67041 22.8897 5.6684C23.4624 5.63874 23.968 5.28516 24.1924 4.75745C24.2076 4.72173 24.2223 4.68173 24.2515 4.60174L24.2877 4.50259Z" fill="#3A6A97"/>
<path d="M42.2877 4.50259C42.6341 3.55466 42.8073 3.0807 42.9584 2.8485C43.9197 1.37055 46.0837 1.37055 47.045 2.8485C47.196 3.0807 47.3692 3.55466 47.7156 4.50259L47.751 4.59947C47.7811 4.68164 47.7961 4.72272 47.8117 4.75939C48.0363 5.28539 48.5405 5.63791 49.1116 5.66829C49.1514 5.67041 49.1951 5.67041 49.2826 5.67041H49.6561C49.9065 5.67041 50.0317 5.67041 50.0932 5.67352C52.3635 5.7884 53.2546 8.67384 51.4445 10.0489C51.3954 10.0862 51.292 10.1567 51.0853 10.2979C51.0489 10.3228 51.0307 10.3352 51.0147 10.3467C50.4821 10.7313 50.2617 11.4177 50.4709 12.0405C50.4772 12.0592 50.4855 12.0821 50.5022 12.1278C50.6824 12.6207 50.7724 12.8671 50.8036 12.9917C51.3102 15.0172 49.2019 16.7007 47.3388 15.7583C47.2242 15.7003 47.0164 15.5661 46.6009 15.2977L45.9685 14.8892C45.8213 14.7941 45.7476 14.7465 45.6753 14.7102C45.2515 14.4971 44.7519 14.4971 44.328 14.7102C44.2557 14.7465 44.1821 14.7941 44.0348 14.8892L43.4152 15.2895C42.9894 15.5645 42.7765 15.702 42.6589 15.7611C40.7986 16.696 38.6983 15.0189 39.1982 12.9979C39.2298 12.8701 39.3218 12.6184 39.5058 12.115C39.5234 12.0668 39.5322 12.0427 39.5389 12.0228C39.744 11.4086 39.5318 10.7321 39.0127 10.3451C38.9958 10.3325 38.9767 10.319 38.9383 10.2921C38.7221 10.1401 38.614 10.0641 38.5621 10.0233C36.7956 8.63287 37.6929 5.79576 39.9376 5.67399C40.0036 5.67041 40.1357 5.67041 40.4 5.67041H40.7232C40.8083 5.67041 40.8509 5.67041 40.8897 5.6684C41.4624 5.63874 41.968 5.28516 42.1924 4.75745C42.2076 4.72173 42.2223 4.68173 42.2515 4.60174L42.2877 4.50259Z" fill="#3A6A97"/>
<path d="M60.2877 4.50259C60.6341 3.55466 60.8073 3.0807 60.9584 2.8485C61.9197 1.37055 64.0837 1.37055 65.045 2.8485C65.196 3.0807 65.3692 3.55466 65.7156 4.50259L65.751 4.59947C65.7811 4.68164 65.7961 4.72272 65.8117 4.75939C66.0363 5.28539 66.5405 5.63791 67.1116 5.66829C67.1514 5.67041 67.1951 5.67041 67.2826 5.67041H67.6561C67.9065 5.67041 68.0317 5.67041 68.0932 5.67352C70.3635 5.7884 71.2546 8.67384 69.4445 10.0489C69.3954 10.0862 69.292 10.1567 69.0853 10.2979C69.0489 10.3228 69.0307 10.3352 69.0147 10.3467C68.4821 10.7313 68.2617 11.4177 68.4709 12.0405C68.4772 12.0592 68.4855 12.0821 68.5022 12.1278C68.6824 12.6207 68.7724 12.8671 68.8036 12.9917C69.3102 15.0172 67.2019 16.7007 65.3388 15.7583C65.2242 15.7003 65.0164 15.5661 64.6009 15.2977L63.9685 14.8892C63.8213 14.7941 63.7476 14.7465 63.6753 14.7102C63.2515 14.4971 62.7519 14.4971 62.328 14.7102C62.2557 14.7465 62.1821 14.7941 62.0348 14.8892L61.4152 15.2895C60.9894 15.5645 60.7765 15.702 60.6589 15.7611C58.7986 16.696 56.6983 15.0189 57.1982 12.9979C57.2298 12.8701 57.3218 12.6184 57.5058 12.115C57.5234 12.0668 57.5322 12.0427 57.5389 12.0228C57.744 11.4086 57.5318 10.7321 57.0127 10.3451C56.9958 10.3325 56.9767 10.319 56.9383 10.2921C56.7221 10.1401 56.614 10.0641 56.5621 10.0233C54.7956 8.63287 55.6929 5.79576 57.9376 5.67399C58.0036 5.67041 58.1357 5.67041 58.4 5.67041H58.7232C58.8083 5.67041 58.8509 5.67041 58.8897 5.6684C59.4624 5.63874 59.968 5.28516 60.1924 4.75745C60.2076 4.72173 60.2223 4.68173 60.2515 4.60174L60.2877 4.50259Z" fill="#3A6A97"/>
<path d="M78.2877 4.50259C78.6341 3.55466 78.8073 3.0807 78.9584 2.8485C79.9197 1.37055 82.0837 1.37055 83.045 2.8485C83.196 3.0807 83.3692 3.55466 83.7156 4.50259L83.751 4.59947C83.7811 4.68164 83.7961 4.72272 83.8117 4.75939C84.0363 5.28539 84.5405 5.63791 85.1116 5.66829C85.1514 5.67041 85.1951 5.67041 85.2826 5.67041H85.6561C85.9065 5.67041 86.0317 5.67041 86.0932 5.67352C88.3635 5.7884 89.2546 8.67384 87.4445 10.0489C87.3954 10.0862 87.292 10.1567 87.0853 10.2979C87.0489 10.3228 87.0307 10.3352 87.0147 10.3467C86.4821 10.7313 86.2617 11.4177 86.4709 12.0405C86.4772 12.0592 86.4855 12.0821 86.5022 12.1278C86.6824 12.6207 86.7724 12.8671 86.8036 12.9917C87.3102 15.0172 85.2019 16.7007 83.3388 15.7583C83.2242 15.7003 83.0164 15.5661 82.6009 15.2977L81.9685 14.8892C81.8213 14.7941 81.7476 14.7465 81.6753 14.7102C81.2515 14.4971 80.7519 14.4971 80.328 14.7102C80.2557 14.7465 80.1821 14.7941 80.0348 14.8892L79.4152 15.2895C78.9894 15.5645 78.7765 15.702 78.6589 15.7611C76.7986 16.696 74.6983 15.0189 75.1982 12.9979C75.2298 12.8701 75.3218 12.6184 75.5058 12.115C75.5234 12.0668 75.5322 12.0427 75.5389 12.0228C75.744 11.4086 75.5318 10.7321 75.0127 10.3451C74.9958 10.3325 74.9767 10.319 74.9383 10.2921C74.7221 10.1401 74.614 10.0641 74.5621 10.0233C72.7956 8.63287 73.6929 5.79576 75.9376 5.67399C76.0036 5.67041 76.1357 5.67041 76.4 5.67041H76.7232C76.8083 5.67041 76.8509 5.67041 76.8897 5.6684C77.4624 5.63874 77.968 5.28516 78.1924 4.75745C78.2076 4.72173 78.2223 4.68173 78.2515 4.60174L78.2877 4.50259Z" fill="#3A6A97"/>
</svg>
