<svg width="130" height="22" viewBox="0 0 130 22" fill="none" xmlns="http://www.w3.org/2000/svg">
<path d="M7.68497 5.503C8.10836 4.34443 8.32006 3.76514 8.50466 3.48133C9.6796 1.67495 12.3245 1.67495 13.4994 3.48133C13.684 3.76514 13.8957 4.34443 14.3191 5.503L14.3624 5.62141C14.3991 5.72184 14.4174 5.77205 14.4365 5.81687C14.711 6.45976 15.3272 6.89061 16.0252 6.92775C16.0739 6.93033 16.1274 6.93033 16.2343 6.93033H16.6908C16.9968 6.93033 17.1498 6.93033 17.225 6.93414C19.9998 7.07454 21.0889 10.6012 18.8766 12.2818C18.8166 12.3274 18.6902 12.4136 18.4375 12.5862V12.5862C18.3931 12.6165 18.3708 12.6317 18.3513 12.6458C17.7003 13.1159 17.4309 13.9549 17.6866 14.716C17.6943 14.7389 17.7045 14.7668 17.7249 14.8227V14.8227C17.9451 15.4251 18.0552 15.7263 18.0932 15.8786C18.7125 18.3542 16.1357 20.4118 13.8585 19.26C13.7184 19.1891 13.4645 19.0251 12.9566 18.697L12.1837 18.1978C12.0037 18.0815 11.9137 18.0233 11.8254 17.9789C11.3074 17.7185 10.6967 17.7185 10.1787 17.9789C10.0903 18.0233 10.0003 18.0815 9.82031 18.1978L9.06301 18.687C8.54257 19.0231 8.28236 19.1912 8.13865 19.2634C5.86497 20.406 3.29788 18.3563 3.90894 15.8861C3.94756 15.73 4.05998 15.4223 4.28483 14.8071V14.8071C4.30635 14.7482 4.31711 14.7187 4.32525 14.6944C4.57596 13.9437 4.31666 13.1169 3.68217 12.6438C3.66156 12.6285 3.63812 12.612 3.59123 12.579V12.579C3.327 12.3933 3.19488 12.3005 3.13143 12.2505C0.972338 10.5511 2.06902 7.08354 4.81264 6.93471C4.89327 6.93033 5.05475 6.93033 5.37772 6.93033H5.77272C5.87681 6.93033 5.92886 6.93033 5.97623 6.92788C6.67619 6.89163 7.29422 6.45948 7.56852 5.81449C7.58709 5.77084 7.60495 5.72196 7.64068 5.62419L7.68497 5.503Z" fill="#F4AF25"/>
<path d="M34.685 5.503C35.1084 4.34443 35.3201 3.76514 35.5047 3.48133C36.6796 1.67495 39.3245 1.67495 40.4994 3.48133C40.684 3.76514 40.8957 4.34443 41.3191 5.503L41.3624 5.62141C41.3991 5.72184 41.4174 5.77205 41.4365 5.81687C41.711 6.45976 42.3272 6.89061 43.0252 6.92775C43.0739 6.93033 43.1274 6.93033 43.2343 6.93033H43.6908C43.9968 6.93033 44.1498 6.93033 44.225 6.93414C46.9998 7.07454 48.0889 10.6012 45.8766 12.2818C45.8166 12.3274 45.6902 12.4136 45.4375 12.5862V12.5862C45.3931 12.6165 45.3708 12.6317 45.3513 12.6458C44.7003 13.1159 44.4309 13.9549 44.6866 14.716C44.6943 14.7389 44.7045 14.7668 44.7249 14.8227V14.8227C44.9451 15.4251 45.0552 15.7263 45.0932 15.8786C45.7125 18.3542 43.1357 20.4118 40.8585 19.26C40.7184 19.1891 40.4645 19.0251 39.9566 18.697L39.1837 18.1978C39.0037 18.0815 38.9137 18.0233 38.8254 17.9789C38.3074 17.7185 37.6967 17.7185 37.1787 17.9789C37.0903 18.0233 37.0003 18.0815 36.8203 18.1978L36.063 18.687C35.5426 19.0231 35.2824 19.1912 35.1387 19.2634C32.865 20.406 30.2979 18.3563 30.9089 15.8861C30.9476 15.73 31.06 15.4223 31.2848 14.8071V14.8071C31.3064 14.7482 31.3171 14.7187 31.3253 14.6944C31.576 13.9437 31.3167 13.1169 30.6822 12.6438C30.6616 12.6285 30.6381 12.612 30.5912 12.579V12.579C30.327 12.3933 30.1949 12.3005 30.1314 12.2505C27.9723 10.5511 29.069 7.08354 31.8126 6.93471C31.8933 6.93033 32.0547 6.93033 32.3777 6.93033H32.7727C32.8768 6.93033 32.9289 6.93033 32.9762 6.92788C33.6762 6.89163 34.2942 6.45948 34.5685 5.81449C34.5871 5.77084 34.605 5.72196 34.6407 5.62419L34.685 5.503Z" fill="#F4AF25"/>
<path d="M61.685 5.503C62.1084 4.34443 62.3201 3.76514 62.5047 3.48133C63.6796 1.67495 66.3245 1.67495 67.4994 3.48133C67.684 3.76514 67.8957 4.34443 68.3191 5.503L68.3624 5.62141C68.3991 5.72184 68.4174 5.77205 68.4365 5.81687C68.711 6.45976 69.3272 6.89061 70.0252 6.92775C70.0739 6.93033 70.1274 6.93033 70.2343 6.93033H70.6908C70.9968 6.93033 71.1498 6.93033 71.225 6.93414C73.9998 7.07454 75.0889 10.6012 72.8766 12.2818C72.8166 12.3274 72.6902 12.4136 72.4375 12.5862V12.5862C72.3931 12.6165 72.3708 12.6317 72.3513 12.6458C71.7003 13.1159 71.4309 13.9549 71.6866 14.716C71.6943 14.7389 71.7045 14.7668 71.7249 14.8227V14.8227C71.9451 15.4251 72.0552 15.7263 72.0932 15.8786C72.7125 18.3542 70.1357 20.4118 67.8585 19.26C67.7184 19.1891 67.4645 19.0251 66.9566 18.697L66.1837 18.1978C66.0037 18.0815 65.9137 18.0233 65.8254 17.9789C65.3074 17.7185 64.6967 17.7185 64.1787 17.9789C64.0903 18.0233 64.0003 18.0815 63.8203 18.1978L63.063 18.687C62.5426 19.0231 62.2824 19.1912 62.1387 19.2634C59.865 20.406 57.2979 18.3563 57.9089 15.8861C57.9476 15.73 58.06 15.4223 58.2848 14.8071V14.8071C58.3064 14.7482 58.3171 14.7187 58.3253 14.6944C58.576 13.9437 58.3167 13.1169 57.6822 12.6438C57.6616 12.6285 57.6381 12.612 57.5912 12.579V12.579C57.327 12.3933 57.1949 12.3005 57.1314 12.2505C54.9723 10.5511 56.069 7.08354 58.8126 6.93471C58.8933 6.93033 59.0547 6.93033 59.3777 6.93033H59.7727C59.8768 6.93033 59.9289 6.93033 59.9762 6.92788C60.6762 6.89163 61.2942 6.45948 61.5685 5.81449C61.5871 5.77084 61.605 5.72196 61.6407 5.62419L61.685 5.503Z" fill="#F4AF25"/>
<path d="M88.685 5.503C89.1084 4.34443 89.3201 3.76514 89.5047 3.48133C90.6796 1.67495 93.3245 1.67495 94.4994 3.48133C94.684 3.76514 94.8957 4.34443 95.3191 5.503L95.3624 5.62141C95.3991 5.72184 95.4174 5.77205 95.4365 5.81687C95.711 6.45976 96.3272 6.89061 97.0252 6.92775C97.0739 6.93033 97.1274 6.93033 97.2343 6.93033H97.6908C97.9968 6.93033 98.1498 6.93033 98.225 6.93414C101 7.07454 102.089 10.6012 99.8766 12.2818C99.8166 12.3274 99.6902 12.4136 99.4375 12.5862V12.5862C99.3931 12.6165 99.3708 12.6317 99.3513 12.6458C98.7003 13.1159 98.4309 13.9549 98.6866 14.716C98.6943 14.7389 98.7045 14.7668 98.7249 14.8227V14.8227C98.9451 15.4251 99.0552 15.7263 99.0932 15.8786C99.7125 18.3542 97.1357 20.4118 94.8585 19.26C94.7184 19.1891 94.4645 19.0251 93.9566 18.697L93.1837 18.1978C93.0037 18.0815 92.9137 18.0233 92.8254 17.9789C92.3074 17.7185 91.6967 17.7185 91.1787 17.9789C91.0903 18.0233 91.0003 18.0815 90.8203 18.1978L90.063 18.687C89.5426 19.0231 89.2824 19.1912 89.1387 19.2634C86.865 20.406 84.2979 18.3563 84.9089 15.8861C84.9476 15.73 85.06 15.4223 85.2848 14.8071V14.8071C85.3064 14.7482 85.3171 14.7187 85.3253 14.6944C85.576 13.9437 85.3167 13.1169 84.6822 12.6438C84.6616 12.6285 84.6381 12.612 84.5912 12.579V12.579C84.327 12.3933 84.1949 12.3005 84.1314 12.2505C81.9723 10.5511 83.069 7.08354 85.8126 6.93471C85.8933 6.93033 86.0547 6.93033 86.3777 6.93033H86.7727C86.8768 6.93033 86.9289 6.93033 86.9762 6.92788C87.6762 6.89163 88.2942 6.45948 88.5685 5.81449C88.5871 5.77084 88.605 5.72196 88.6407 5.62419L88.685 5.503Z" fill="#F4AF25"/>
<path d="M115.685 5.503C116.108 4.34443 116.32 3.76514 116.505 3.48133C117.68 1.67495 120.324 1.67495 121.499 3.48133C121.684 3.76514 121.896 4.34443 122.319 5.503L122.362 5.62141C122.399 5.72184 122.417 5.77205 122.437 5.81687C122.711 6.45976 123.327 6.89061 124.025 6.92775C124.074 6.93033 124.127 6.93033 124.234 6.93033H124.691C124.997 6.93033 125.15 6.93033 125.225 6.93414C128 7.07454 129.089 10.6012 126.877 12.2818C126.817 12.3274 126.69 12.4136 126.438 12.5862V12.5862C126.393 12.6165 126.371 12.6317 126.351 12.6458C125.7 13.1159 125.431 13.9549 125.687 14.716C125.694 14.7389 125.705 14.7668 125.725 14.8227V14.8227C125.945 15.4251 126.055 15.7263 126.093 15.8786C126.712 18.3542 124.136 20.4118 121.858 19.26C121.718 19.1891 121.464 19.0251 120.957 18.697L120.184 18.1978C120.004 18.0815 119.914 18.0233 119.825 17.9789C119.307 17.7185 118.697 17.7185 118.179 17.9789C118.09 18.0233 118 18.0815 117.82 18.1978L117.063 18.687C116.543 19.0231 116.282 19.1912 116.139 19.2634C113.865 20.406 111.298 18.3563 111.909 15.8861C111.948 15.73 112.06 15.4223 112.285 14.8071V14.8071C112.306 14.7482 112.317 14.7187 112.325 14.6944C112.576 13.9437 112.317 13.1169 111.682 12.6438C111.662 12.6285 111.638 12.612 111.591 12.579V12.579C111.327 12.3933 111.195 12.3005 111.131 12.2505C108.972 10.5511 110.069 7.08354 112.813 6.93471C112.893 6.93033 113.055 6.93033 113.378 6.93033H113.773C113.877 6.93033 113.929 6.93033 113.976 6.92788C114.676 6.89163 115.294 6.45948 115.569 5.81449C115.587 5.77084 115.605 5.72196 115.641 5.62419L115.685 5.503Z" fill="#F4AF25"/>
</svg>
