<svg width="100" height="100" viewBox="0 0 100 100" fill="none" xmlns="http://www.w3.org/2000/svg">
<circle cx="50" cy="50" r="50" fill="#FFE4DC"/>
<path d="M47.7451 35.5466C47.0856 29.8954 46.3894 23.9285 46.3894 17H52.6106C52.6106 23.8508 51.9177 29.81 51.259 35.4675C50.7226 40.0782 50.2094 44.4884 50.114 49.0176C53.2379 45.7592 55.9705 42.3042 58.8331 38.685C62.3625 34.2228 66.0897 29.5113 70.9885 24.6123L75.3877 29.0115C70.5435 33.8557 65.8391 37.5792 61.373 41.1143L61.3689 41.1175C57.7311 43.9973 54.2511 46.752 50.9823 49.8859C55.4948 49.7906 59.8701 49.2801 64.453 48.7453C70.1043 48.0857 76.0715 47.3894 83.0003 47.3894V53.6106C76.1495 53.6106 70.1902 52.9174 64.5329 52.2591L64.5287 52.2588C59.9191 51.7224 55.5102 51.2095 50.9823 51.1141C54.2385 54.2356 57.6917 56.967 61.3086 59.8276L61.3143 59.8324C65.7766 63.3622 70.4884 67.089 75.3877 71.9886L70.9885 76.3878C66.1443 71.5437 62.4209 66.8396 58.8863 62.3739L58.878 62.3624L58.8709 62.3531C55.9948 58.721 53.2435 55.2466 50.114 51.9824C50.2094 56.5116 50.7226 60.9219 51.259 65.5325C51.9177 71.1901 52.6106 77.1493 52.6106 84H46.3894C46.3894 77.0715 47.0856 71.1047 47.7451 65.4534L47.7464 65.4442C48.2806 60.8644 48.7906 56.4918 48.8859 51.9824C45.7565 55.2466 43.0052 58.721 40.129 62.3531L40.122 62.3624L40.1136 62.3739C36.579 66.8396 32.8557 71.5437 28.0115 76.3878L23.6123 71.9886C28.5115 67.089 33.2233 63.3622 37.6857 59.8324L37.6914 59.8276C41.3082 56.967 44.7614 54.2356 48.0176 51.1141C43.4884 51.2097 39.078 51.7228 34.467 52.2591C28.8098 52.9174 22.8505 53.6106 16 53.6106V47.3894C22.9286 47.3894 28.8957 48.0857 34.5469 48.7453C39.1299 49.2801 43.5051 49.7906 48.0176 49.8859C44.7475 46.7508 41.2662 43.9953 37.6269 41.1143C33.1609 37.5792 28.4564 33.8557 23.6123 29.0115L28.0115 24.6123C32.9103 29.5113 36.6375 34.2228 40.1669 38.685C43.0294 42.304 45.762 45.7591 48.8859 49.0173C48.7906 44.508 48.2806 40.1356 47.7464 35.5559L47.7451 35.5466Z" fill="#FFA589"/>
</svg>
