<svg width="60" height="60" viewBox="0 0 60 60" fill="none" xmlns="http://www.w3.org/2000/svg">
<path d="M31.875 27.1875L39.75 18.75L9.1875 2.25C9 2.0625 8.625 2.0625 8.0625 1.875L31.875 27.1875Z" fill="#00F076"/>
<path d="M43.125 39.375L54.1875 33.375C55.5 32.625 56.25 31.5 56.25 30C56.25 28.5 55.5 27.1875 54.1875 26.625L43.125 20.625L34.3125 30L43.125 39.375Z" fill="#FFC900"/>
<path d="M4.5 3.5625C3.9375 4.125 3.75 4.875 3.75 5.625V54.375C3.75 55.125 3.9375 55.875 4.5 56.625L29.25 30L4.5 3.5625Z" fill="#00D6FF"/>
<path d="M31.875 32.8125L8.0625 58.125C8.4375 58.125 8.8125 57.9375 9.1875 57.75L39.75 41.25L31.875 32.8125Z" fill="#FF3A44"/>
</svg>
