<svg width="60" height="60" viewBox="0 0 60 60" fill="none" xmlns="http://www.w3.org/2000/svg">
<g clip-path="url(#clip0_203_552)">
<path d="M47.874 0.00390625H12.1185C5.4218 0.00390625 0 5.4257 0 12.1224V47.8854C0 54.5746 5.4218 59.9964 12.1185 59.9964H47.8815C54.5707 59.9964 60 54.5746 60 47.8779V12.1224C59.9925 5.4257 54.5707 0.00390625 47.874 0.00390625Z" fill="url(#paint0_linear_203_552)"/>
<path d="M29.7412 13.7871L30.9561 11.6874C31.706 10.375 33.3782 9.93262 34.6906 10.6825C36.003 11.4324 36.4454 13.1046 35.6955 14.417L23.9894 34.6796H32.4559C35.2005 34.6796 36.7378 37.9042 35.5455 40.1389H10.7237C9.2089 40.1389 7.99402 38.924 7.99402 37.4092C7.99402 35.8945 9.2089 34.6796 10.7237 34.6796H17.6828L26.5918 19.2389L23.8096 14.4095C23.0598 13.0971 23.5021 11.4399 24.8145 10.675C26.1269 9.92512 27.7842 10.3675 28.5491 11.6799L29.7412 13.7871Z" fill="white"/>
<path d="M19.2126 42.9509L16.588 47.5028C15.8381 48.8152 14.1659 49.2576 12.8535 48.5077C11.5411 47.7579 11.0987 46.0856 11.8486 44.7732L13.7984 41.3987C16.003 40.7163 17.7953 41.2412 19.2126 42.9509Z" fill="white"/>
<path d="M41.8147 34.6944H48.9163C50.431 34.6944 51.6459 35.9093 51.6459 37.4241C51.6459 38.9388 50.431 40.1537 48.9163 40.1537H44.9717L47.6339 44.7731C48.3838 46.0855 47.9414 47.7428 46.629 48.5077C45.3166 49.2576 43.6594 48.8152 42.8945 47.5028C38.4101 39.7262 35.0429 33.9071 32.8083 30.03C30.521 26.0855 32.1559 22.126 33.7682 20.7837C35.5605 23.8583 38.2377 28.5003 41.8147 34.6944Z" fill="white"/>
</g>
<defs>
<linearGradient id="paint0_linear_203_552" x1="30" y1="0.00390625" x2="30" y2="59.9964" gradientUnits="userSpaceOnUse">
<stop stop-color="#00BFFC"/>
<stop offset="1" stop-color="#0073F6"/>
</linearGradient>
<clipPath id="clip0_203_552">
<rect width="60" height="60" fill="white"/>
</clipPath>
</defs>
</svg>
