<svg width="50" height="50" viewBox="0 0 50 50" fill="none" xmlns="http://www.w3.org/2000/svg">
<path d="M45.3125 25C45.3125 36.2183 36.2183 45.3125 25 45.3125C13.7817 45.3125 4.6875 36.2183 4.6875 25C4.6875 13.7817 13.7817 4.6875 25 4.6875C36.2183 4.6875 45.3125 13.7817 45.3125 25Z" fill="#3A6A97" fill-opacity="0.18"/>
<path fill-rule="evenodd" clip-rule="evenodd" d="M27.7638 23.5402H34.375C35.2379 23.5402 35.9375 24.2398 35.9375 25.1027C35.9375 25.9657 35.2379 26.6652 34.375 26.6652H27.6448C27.0914 27.5424 26.1138 28.125 25 28.125C23.2741 28.125 21.875 26.7259 21.875 25C21.875 23.8433 22.5034 22.8334 23.4375 22.2931V13.6444C23.4375 12.7815 24.1371 12.0819 25 12.0819C25.8629 12.0819 26.5625 12.7815 26.5625 13.6444V22.2931C27.0708 22.5871 27.4885 23.0201 27.7638 23.5402Z" fill="#3A6A97"/>
</svg>
