<svg width="41" height="40" viewBox="0 0 41 40" fill="none" xmlns="http://www.w3.org/2000/svg">
<path d="M20.5 36.25C29.4746 36.25 36.75 28.9746 36.75 20C36.75 11.0254 29.4746 3.75 20.5 3.75C11.5254 3.75 4.25 11.0254 4.25 20C4.25 28.9746 11.5254 36.25 20.5 36.25Z" fill="#3A6A97" fill-opacity="0.18"/>
<path d="M24.6668 16.6667V16.6667C24.6668 14.8258 23.1744 13.3334 21.3335 13.3334H20.5002M20.5002 13.3334H19.6668C17.8259 13.3334 16.3335 14.8258 16.3335 16.6667V16.6667C16.3335 18.5077 17.8259 20 19.6668 20H20.5002M20.5002 13.3334V10.8334M20.5002 13.3334V20M20.5002 20H21.3335C23.1744 20 24.6668 21.4924 24.6668 23.3334V23.3334C24.6668 25.1743 23.1744 26.6667 21.3335 26.6667H20.5002M20.5002 20V26.6667M20.5002 26.6667H19.6668C17.8259 26.6667 16.3335 25.1743 16.3335 23.3334V23.3334M20.5002 26.6667V29.1667" stroke="#3A6A97" stroke-width="2.5" stroke-linecap="round" stroke-linejoin="round"/>
</svg>
