<svg width="24" height="24" viewBox="0 0 24 24" fill="none" xmlns="http://www.w3.org/2000/svg">
<path d="M13.7875 9.53176C15.5256 8.10919 17.0125 6.39096 18.1715 4.45349C19.8897 5.86108 21.1173 7.84274 21.5624 10.1038C19.1753 10.2169 16.9 10.7614 14.8135 11.6614C14.5139 10.928 14.1709 10.217 13.7875 9.53176Z" fill="#3A6A97"/>
<path d="M13.4578 12.3099C10.2974 13.9754 7.65276 16.4867 5.82452 19.5429C4.10638 18.1353 2.87878 16.1537 2.43359 13.8926C6.19396 13.7144 9.67548 12.4659 12.5784 10.4452C12.9059 11.0468 13.1998 11.6692 13.4578 12.3099Z" fill="#3A6A97"/>
<path d="M12.9968 8.23926C11.6601 6.23488 9.96064 4.49339 7.99198 3.10844C9.21356 2.55699 10.5694 2.25 11.9983 2.25C13.8022 2.25 15.4902 2.73938 16.9385 3.5926C15.8965 5.35806 14.5601 6.92953 12.9968 8.23926Z" fill="#3A6A97" fill-opacity="0.18"/>
<path d="M15.3272 13.0738C17.3032 12.2099 19.4655 11.6921 21.7384 11.5975C21.7438 11.7304 21.7465 11.864 21.7465 11.9983C21.7465 15.891 19.4644 19.2522 16.1637 20.8145C16.2193 20.216 16.2477 19.6098 16.2477 18.9971C16.2477 16.9325 15.9251 14.942 15.3272 13.0738Z" fill="#3A6A97" fill-opacity="0.18"/>
<path d="M14.7477 18.9971C14.7477 19.8119 14.6933 20.6136 14.5881 21.3989C13.7641 21.6254 12.8959 21.7465 11.9983 21.7465C10.1943 21.7465 8.50632 21.2571 7.058 20.4039C8.71012 17.6047 11.1021 15.2937 13.9642 13.7403C14.4734 15.4018 14.7477 17.1668 14.7477 18.9971Z" fill="#3A6A97" fill-opacity="0.18"/>
<path d="M11.8048 9.15594C9.08332 11.0733 5.80453 12.2514 2.25808 12.399C2.25271 12.2661 2.25 12.1325 2.25 11.9983C2.25 8.64365 3.94401 5.68411 6.52636 3.92935C8.62871 5.28459 10.4294 7.06796 11.8048 9.15594Z" fill="#3A6A97" fill-opacity="0.18"/>
</svg>
