<svg width="150" height="150" viewBox="0 0 150 150" fill="none" xmlns="http://www.w3.org/2000/svg">
<path d="M55.3996 24.1549C58.5158 20.6489 60.0739 18.8959 61.5827 17.7034C69.5336 11.4197 80.7594 11.4197 88.7102 17.7034C90.219 18.8959 91.7772 20.6489 94.8934 24.1549V24.1549C95.8844 25.27 96.38 25.8275 96.8993 26.3387C99.5531 28.9514 102.83 30.8434 106.42 31.8353C107.122 32.0294 107.853 32.1798 109.314 32.4805V32.4805C113.908 33.4263 116.205 33.8991 117.993 34.6096C127.41 38.3533 133.023 48.0751 131.556 58.1026C131.278 60.0055 130.539 62.2314 129.061 66.6831V66.6831C128.591 68.099 128.355 68.8069 128.172 69.5122C127.237 73.1168 127.237 76.9007 128.172 80.5053C128.355 81.2107 128.591 81.9186 129.061 83.3344V83.3344C130.539 87.7861 131.278 90.012 131.556 91.9149C133.023 101.942 127.41 111.664 117.993 115.408C116.205 116.118 113.908 116.591 109.314 117.537V117.537C107.853 117.838 107.122 117.988 106.42 118.182C102.83 119.174 99.5531 121.066 96.8993 123.679C96.38 124.19 95.8844 124.748 94.8934 125.863V125.863C91.7772 129.369 90.219 131.122 88.7102 132.314C80.7594 138.598 69.5336 138.598 61.5828 132.314C60.0739 131.122 58.5158 129.369 55.3996 125.863V125.863C54.4085 124.748 53.913 124.19 53.3937 123.679C50.7399 121.066 47.463 119.174 43.8734 118.182C43.171 117.988 42.4404 117.838 40.9792 117.537V117.537C36.3848 116.591 34.0876 116.118 32.3005 115.408C22.8832 111.664 17.2703 101.942 18.7367 91.9149C19.015 90.012 19.7541 87.7861 21.2323 83.3344V83.3344C21.7025 81.9186 21.9375 81.2107 22.1206 80.5053C23.0564 76.9007 23.0564 73.1168 22.1206 69.5122C21.9375 68.8069 21.7025 68.099 21.2323 66.6831V66.6831C19.7541 62.2314 19.015 60.0055 18.7367 58.1026C17.2703 48.0751 22.8832 38.3533 32.3005 34.6095C34.0876 33.8991 36.3848 33.4263 40.9792 32.4805V32.4805C42.4404 32.1798 43.171 32.0294 43.8734 31.8353C47.463 30.8434 50.7399 28.9514 53.3937 26.3387C53.913 25.8275 54.4085 25.27 55.3996 24.1549V24.1549Z" fill="#3A6A97" fill-opacity="0.18"/>
<path d="M89.0625 75C89.0625 82.7665 82.7665 89.0625 75 89.0625C67.2335 89.0625 60.9375 82.7665 60.9375 75C60.9375 67.2335 67.2335 60.9375 75 60.9375C82.7665 60.9375 89.0625 67.2335 89.0625 75Z" fill="#3A6A97"/>
</svg>
