<svg width="51" height="50" viewBox="0 0 51 50" fill="none" xmlns="http://www.w3.org/2000/svg">
<path d="M25.5001 46.3575C35.5807 46.3575 42.2036 35.7073 44.7272 23.7133C45.3609 20.7014 45.6778 19.1955 45.1068 17.2903C44.944 16.7471 44.614 15.9997 44.3222 15.5134C43.2989 13.808 41.6934 12.8635 38.4825 10.9745L32.6308 7.53177C29.5485 5.71836 28.0073 4.81165 26.3294 4.63252C25.7781 4.57366 25.2221 4.57366 24.6707 4.63252C22.9929 4.81165 21.4517 5.71836 18.3694 7.53178L12.5177 10.9745C9.30674 12.8635 7.70128 13.808 6.67797 15.5134C6.38616 15.9997 6.05616 16.7471 5.89334 17.2903C5.32239 19.1955 5.63924 20.7014 6.27295 23.7133C8.79653 35.7073 15.4195 46.3575 25.5001 46.3575Z" fill="#687F95" fill-opacity="0.58"/>
<path d="M20.2917 26.0417L22.0289 28.3578C22.595 29.1126 22.878 29.49 23.2562 29.5728C23.3772 29.5993 23.502 29.604 23.6247 29.5867C24.008 29.5326 24.3187 29.1776 24.94 28.4675L30.7084 21.875" stroke="#3A6A97" stroke-width="3.125" stroke-linecap="round" stroke-linejoin="round"/>
</svg>
