<svg width="30" height="30" viewBox="0 0 30 30" fill="none" xmlns="http://www.w3.org/2000/svg">
<path fill-rule="evenodd" clip-rule="evenodd" d="M12.4987 5.367V5.3125C12.4987 3.93179 13.618 2.8125 14.9987 2.8125C16.3794 2.8125 17.4987 3.93179 17.4987 5.3125V5.36617C20.4023 6.35646 22.4083 9.2323 22.1239 12.4735C21.9645 14.2911 22.5344 16.0976 23.7079 17.4947L24.3218 18.2255C25.9513 20.1654 24.5722 23.125 22.0387 23.125H17.828H12.1701H7.96107C5.42758 23.125 4.04843 20.1654 5.67795 18.2255L6.2918 17.4947C7.46538 16.0976 8.03525 14.2911 7.8758 12.4735C7.59157 9.2332 9.59634 6.35807 12.4987 5.367Z" fill="white" fill-opacity="0.5"/>
<path d="M17.5 25H12.5C12.5 26.3807 13.6193 27.5 15 27.5C16.3807 27.5 17.5 26.3807 17.5 25Z" fill="white"/>
</svg>
