<svg width="173" height="50" viewBox="0 0 173 50" fill="none" xmlns="http://www.w3.org/2000/svg">
<g clip-path="url(#clip0_261_350)">
<path d="M28.5009 49.8143C56.3626 45.8341 56.3633 4.22838 28.5009 0.248047C45.2469 12.2673 45.2016 37.7898 28.5009 49.8143Z" fill="white"/>
<path d="M17.4726 48.8229C19.2074 49.3805 20.9422 49.7523 22.8009 49.8762C37.1997 36.6663 37.209 13.3315 22.8009 0.124023C20.9422 0.309896 19.1454 0.681644 17.4726 1.17731C29.5689 14.457 29.5649 35.5476 17.4726 48.8229Z" fill="white"/>
<path d="M11.0282 45.7248C22.772 34.6408 22.8835 15.393 11.0282 4.33691C-3.44125 13.9833 -3.44734 36.0744 11.0282 45.7248Z" fill="white"/>
<path d="M77.431 16.9873C72.936 16.9873 70.363 20.2423 70.363 25.1403C70.363 30.1933 73.277 32.9523 77.462 32.9523C81.399 32.9523 83.786 30.7823 83.786 27.1553V27.0623H76.935V23.5593H87.475V36.3003H84.127L83.879 33.6963C82.639 35.4323 80.066 36.6413 76.997 36.6413C70.642 36.6413 66.209 32.0223 66.209 25.0473C66.209 18.1653 70.704 13.2673 77.524 13.2673C82.701 13.2673 86.7 16.2743 87.351 20.8933H83.166C82.453 18.2273 80.159 16.9873 77.431 16.9873ZM100.812 20.9243V24.4273H99.417C96.689 24.4273 94.984 25.8843 94.984 28.8603V36.3003H91.202V21.0173H94.767L94.984 23.2493C95.635 21.7303 97.092 20.7073 99.138 20.7073C99.665 20.7073 100.192 20.7693 100.812 20.9243ZM107.323 36.7033C104.068 36.7033 102.084 34.8123 102.084 31.9293C102.084 29.1083 104.13 27.3413 107.757 27.0623L112.345 26.7213V26.3803C112.345 24.3033 111.105 23.4663 109.183 23.4663C106.951 23.4663 105.711 24.3963 105.711 26.0083H102.487C102.487 22.6913 105.215 20.5213 109.369 20.5213C113.492 20.5213 116.034 22.7533 116.034 27.0003V36.3003H112.717L112.438 34.0373C111.787 35.6183 109.71 36.7033 107.323 36.7033ZM108.563 33.8513C110.888 33.8513 112.376 32.4563 112.376 30.1003V29.2943L109.183 29.5423C106.827 29.7593 105.928 30.5343 105.928 31.7743C105.928 33.1693 106.858 33.8513 108.563 33.8513ZM119.75 43.3993V20.9863H123.253L123.501 23.3113C124.431 21.5443 126.446 20.5213 128.771 20.5213C133.08 20.5213 135.932 23.6523 135.932 28.4573C135.932 33.2313 133.328 36.7033 128.771 36.7033C126.477 36.7033 124.493 35.8043 123.532 34.2543V43.3993H119.75ZM123.563 28.6433C123.563 31.4023 125.268 33.2933 127.872 33.2933C130.538 33.2933 132.119 31.3713 132.119 28.6433C132.119 25.9153 130.538 23.9623 127.872 23.9623C125.268 23.9623 123.563 25.8843 123.563 28.6433ZM142.725 36.3003H138.943V13.2363H142.756V22.9703C143.717 21.4823 145.515 20.5213 147.716 20.5213C151.498 20.5213 153.482 22.9083 153.482 26.8763V36.3003H149.7V27.7753C149.7 25.2023 148.429 23.9623 146.507 23.9623C144.12 23.9623 142.725 25.6363 142.725 27.9303V36.3003ZM156.299 28.6123C156.299 23.8383 159.74 20.5523 164.483 20.5523C169.226 20.5523 172.667 23.8383 172.667 28.6123C172.667 33.3863 169.226 36.6723 164.483 36.6723C159.74 36.6723 156.299 33.3863 156.299 28.6123ZM160.081 28.6123C160.081 31.4023 161.879 33.2933 164.483 33.2933C167.087 33.2933 168.885 31.4023 168.885 28.6123C168.885 25.8223 167.087 23.9313 164.483 23.9313C161.879 23.9313 160.081 25.8223 160.081 28.6123Z" fill="white"/>
</g>
<defs>
<clipPath id="clip0_261_350">
<rect width="173" height="50" fill="white"/>
</clipPath>
</defs>
</svg>
