<svg width="204" height="51" viewBox="0 0 204 51" fill="none" xmlns="http://www.w3.org/2000/svg">
<g clip-path="url(#clip0_261_313)">
<path d="M14.6077 33.6422C9.19868 33.6422 0.750977 34.419 0.750977 26.6174C0.750977 22.6491 3.6375 19.207 7.77577 19.207C21.2744 19.207 32.211 30.1436 32.211 43.6422V43.7524C32.211 47.6367 29.0705 50.7772 25.1862 50.7772C17.5035 50.7772 18.1614 42.5851 18.1614 37.2235C18.1614 35.24 16.5636 33.6422 14.6077 33.6422Z" fill="#111111"/>
<path d="M33.6442 14.6071C33.6442 9.19812 34.421 0.750415 26.6195 0.750415C25.9465 0.750415 19.209 0.0256886 19.209 7.77521C19.209 21.2738 30.1456 32.2104 43.6442 32.2104C47.5166 32.2104 50.7792 29.1044 50.7792 25.1856C50.7792 17.5029 42.5871 18.1609 37.2255 18.1609C35.242 18.1609 33.6442 16.5631 33.6442 14.6071Z" fill="#111111"/>
<path d="M74.2092 29.7462H70.7062V37.0002H65.9942V14.7422H74.2092C79.6342 14.7422 83.0132 17.3152 83.0132 22.1512C83.0132 26.9872 79.6342 29.7462 74.2092 29.7462ZM74.1782 18.7102H70.7062V25.7782H74.1782C76.8442 25.7782 78.3322 24.3832 78.3322 22.1822C78.3322 19.9812 76.8442 18.7102 74.1782 18.7102ZM90.9289 37.0002H86.2169V14.7422H94.9279C100.539 14.7422 103.794 17.3462 103.794 21.9652C103.794 24.9722 101.934 27.3592 98.7719 28.4132L104.507 37.0002H98.8959L93.8739 29.1262H90.9289V37.0002ZM90.9289 18.6482V25.2512H94.7109C97.5629 25.2512 99.0819 24.1352 99.0819 21.9652C99.0819 19.7642 97.5629 18.6482 94.7109 18.6482H90.9289ZM122.412 32.9082V37.0002H107.439V14.7422H122.195V18.8342H112.151V23.5152H121.265V27.5762H112.151V32.9082H122.412ZM140.441 37.0002H126.057V14.7422H130.769V32.7532H140.441V37.0002ZM161.178 14.7422V28.5372C161.178 33.8072 157.83 37.4652 152.033 37.4652C146.143 37.4652 142.857 33.8072 142.857 28.5372V14.7422H147.569V28.6302C147.569 31.3892 148.902 33.2492 152.033 33.2492C155.133 33.2492 156.466 31.3892 156.466 28.6302V14.7422H161.178ZM173.59 37.0002H165.685V14.7422H173.59C180.658 14.7422 184.936 19.2682 184.936 25.7472C184.936 32.2262 180.503 37.0002 173.59 37.0002ZM170.397 18.8032V32.9392H173.342C177.775 32.9392 180.1 30.3662 180.1 25.7472C180.1 21.3142 177.775 18.8032 173.342 18.8032H170.397ZM203.181 32.9082V37.0002H188.208V14.7422H202.964V18.8342H192.92V23.5152H202.034V27.5762H192.92V32.9082H203.181Z" fill="#111111"/>
</g>
<defs>
<clipPath id="clip0_261_313">
<rect width="204" height="51" fill="white"/>
</clipPath>
</defs>
</svg>
