<svg width="184" height="50" viewBox="0 0 184 50" fill="none" xmlns="http://www.w3.org/2000/svg">
<g clip-path="url(#clip0_261_359)">
<path opacity="0.5" fill-rule="evenodd" clip-rule="evenodd" d="M21.127 0C16.466 0 12.2287 1.69492 8.83887 4.23729L31.9321 31.9915L50.788 17.7966C49.9406 7.83898 41.466 0 31.0846 0" fill="white"/>
<path fill-rule="evenodd" clip-rule="evenodd" d="M31.0844 49.9997C42.7771 49.9997 50.9996 40.2622 50.9996 29.0251L33.8386 41.737C31.9319 43.22 29.1776 42.7963 27.6946 41.1014L3.11829 11.4404C0.249233 17.1785 0.99965 23.6565 0.99965 29.8726C0.99965 40.8895 9.89795 49.7878 20.9149 49.7878" fill="white"/>
<path d="M75.439 14.9242L75.873 15.2962C76.059 17.4042 76.121 19.6052 76.121 21.7132C76.121 25.9912 75.563 30.3622 75.16 33.2452L75.935 33.2762C78.973 30.2382 81.794 25.3712 81.794 21.8062C81.794 18.9542 80.616 17.0632 79.469 15.8542L79.531 15.4512C81.422 15.0792 83.499 14.9552 85.018 14.9242C85.669 15.4202 86.072 16.1022 86.072 17.3732C86.072 18.2412 85.855 19.2952 85.421 20.6902C84.15 24.8132 76.586 34.7022 72.928 36.9962C71.347 36.8722 69.828 36.3762 68.681 35.7252C69.022 31.7882 69.27 27.6962 69.27 23.8832C69.27 21.6822 69.146 19.6672 68.991 17.9932L66.201 15.7922L66.263 15.3892C68.433 15.1722 73.269 14.9242 75.439 14.9242ZM91.7043 17.5282C90.4953 17.5282 89.5963 16.7532 89.5963 15.6682C89.5963 14.0252 91.2083 13.0332 92.5413 13.0332C93.7503 13.0332 94.6183 13.8082 94.6183 14.8622C94.6183 16.5362 93.0373 17.5282 91.7043 17.5282ZM96.5403 32.9972C95.0523 34.6712 92.0143 36.9962 89.4103 36.9962C87.2093 36.9962 85.5043 35.8492 85.5043 33.5242C85.5043 32.4082 85.9383 30.9202 86.4963 29.1532C87.0543 27.4172 87.6433 25.4642 88.0463 23.2012L86.8683 21.4342L86.9613 20.9692C89.7513 20.6592 92.1073 20.5352 94.4013 20.5042L94.8353 20.8142C94.8353 22.0542 94.4633 24.6892 93.7193 27.3242C92.9133 30.1762 91.5803 33.3072 91.5803 34.8882C91.5803 35.1672 91.6113 35.5082 91.7043 35.6322C93.1303 35.0122 95.3003 33.4622 96.4473 32.1912L96.5403 32.2842V32.9972ZM109.426 32.0672C109.426 35.6012 105.799 36.9962 102.792 36.9962C99.5057 36.9962 96.0957 35.9732 94.9487 34.3922C95.5377 32.9662 96.5297 31.6952 97.5527 30.6412H97.8627C98.5757 32.4702 100.343 36.2522 102.358 36.2522C103.288 36.2522 104.125 35.6942 104.125 34.5472C104.125 32.9352 102.978 32.4082 101.49 31.4782C99.0407 29.9592 97.4597 28.8742 97.4597 26.6422C97.4597 22.1472 102.854 20.5042 106.419 20.5042C109.736 20.5042 111.937 21.7132 111.937 23.6662C111.937 24.8752 111.224 25.6192 110.201 26.1462C108.651 26.3322 107.132 26.3632 105.582 26.3632L105.489 26.0532C106.233 25.2162 106.977 24.4102 106.977 23.6042C106.977 22.7052 106.047 21.4962 104.807 21.4962C103.846 21.4962 102.885 22.1472 102.885 23.7592C102.885 25.3712 103.908 26.3012 105.396 27.2312C107.845 28.7502 109.426 29.8352 109.426 32.0672ZM134.524 32.9972C133.036 34.6712 129.378 36.9962 126.774 36.9962C124.573 36.9962 123.364 35.8492 123.364 33.8342C123.364 32.1602 124.263 29.3702 125.565 26.7972L125.069 26.6422C124.976 26.8282 124.48 27.9442 124.356 28.1922C122.372 32.5012 120.295 36.9962 115.986 36.9962C113.537 36.9962 112.266 35.5392 112.266 33.5242C112.266 32.4392 113.041 30.4242 113.785 28.3472C114.56 26.2702 115.335 24.1622 115.335 22.8602C115.335 22.3952 115.149 22.2712 114.87 22.2712C114.374 22.2712 113.63 22.5502 113.01 22.9222L112.917 22.8602L113.041 22.0542C114.436 21.3102 116.358 20.5042 118.063 20.5042C120.419 20.5042 121.473 21.7132 121.473 23.7282C121.473 24.8442 120.822 26.9522 120.171 28.9362C119.52 30.9512 118.869 32.8422 118.869 33.5552C118.869 34.1132 119.179 34.2992 119.52 34.2992C120.202 34.2992 121.194 32.9972 122.341 30.7652C123.612 28.3162 125.131 24.7512 126.774 20.5042C128.975 20.6592 131.486 21.7442 132.385 22.6122C132.385 24.7822 128.975 32.0362 128.975 35.1672C128.975 35.3532 129.006 35.5392 129.068 35.6322C131.641 34.5782 133.346 33.2762 134.431 32.1292L134.524 32.2222V32.9972ZM155.101 32.6872C153.613 34.3612 149.645 36.9962 147.041 36.9962C144.84 36.9962 143.631 35.8492 143.631 33.8342C143.631 32.6872 144.065 31.6332 145.646 28.8432L144.592 28.9362C143.352 31.9122 141.182 36.9962 137.741 36.9962C135.261 36.9962 133.494 34.5162 133.494 31.0442C133.494 24.8132 136.904 20.5042 141.833 20.5042C143.476 20.5042 144.747 21.1862 145.553 22.5812L145.243 23.3562C144.561 22.4572 143.786 21.4962 142.794 21.4962C141.399 21.4962 140.19 25.7742 140.19 30.6102C140.19 32.5632 140.5 33.6482 141.089 33.6482C141.585 33.6482 142.143 32.6252 143.29 29.8972C144.158 27.8822 145.336 24.9682 146.762 20.8452C149.025 21.1552 151.505 22.3952 152.559 23.5732C152.559 24.6582 151.722 27.1072 150.885 29.4942C150.079 31.8812 149.242 34.2372 149.242 35.1672C149.242 35.3532 149.273 35.5392 149.335 35.6322C151.908 34.5782 153.923 32.9662 155.008 31.8192L155.101 31.9122V32.6872ZM157.584 36.9962C155.166 36.9962 153.678 35.6632 153.678 33.5242C153.678 32.3152 153.957 31.0442 154.608 29.0602L157.305 20.8452C158.018 18.6752 158.328 17.4042 158.483 16.1952L157.367 14.1802L157.46 13.7152C159.909 13.4362 162.327 13.2812 164.9 13.2502L165.303 13.5292C165.303 14.6762 164.714 18.4272 163.071 23.6042C162.172 26.4252 159.785 32.6252 159.785 34.8882C159.785 35.1672 159.847 35.5082 159.878 35.6322C161.521 34.9502 164.125 33.2452 165.179 32.0672L165.272 32.1602V32.8732C163.319 35.0742 159.692 36.9962 157.584 36.9962ZM179.551 36.1282C177.567 40.9642 172.948 44.2502 167.988 44.2502C165.105 44.2502 161.943 43.3202 161.602 40.5302C162.532 38.7012 164.764 36.6552 166.593 35.8492C165.105 35.3842 164.361 34.1442 164.361 32.5942C164.361 31.4782 165.167 29.6802 166.004 27.8512C166.81 25.9912 167.616 24.1002 167.616 22.8292C167.616 22.3642 167.43 22.2402 167.151 22.2402C166.841 22.2402 166.159 22.4262 165.88 22.6122L165.787 22.5502L165.911 21.8372C166.872 21.1862 168.639 20.5042 170.344 20.5042C172.7 20.5042 173.754 21.6822 173.754 23.6972C173.754 24.8132 173.041 26.7042 172.359 28.5022C171.646 30.2692 170.964 31.9122 170.964 32.6252C170.964 33.1832 171.274 33.3692 171.615 33.3692C172.111 33.3692 172.855 32.5632 173.785 31.0132C175.025 28.8742 176.575 25.4022 178.125 20.8142C180.016 21.1242 182.837 22.1782 183.922 23.5732C183.55 24.5032 180.853 32.9972 179.551 36.1282ZM166.965 37.8332C166.965 40.4062 168.391 43.1032 170.778 43.1032C171.615 43.1032 172.545 40.6232 173.506 37.5852C174.436 34.5782 175.397 31.0442 176.327 28.8122L175.707 28.9362C175.273 29.8042 174.808 30.6412 174.312 31.4472C172.731 33.9892 170.747 36.0662 168.081 36.0662C167.771 36.0662 167.492 36.0352 167.213 36.0042C167.058 36.5932 166.965 37.2132 166.965 37.8332Z" fill="white"/>
</g>
<defs>
<clipPath id="clip0_261_359">
<rect width="184" height="50" fill="white"/>
</clipPath>
</defs>
</svg>
