<svg width="30" height="30" viewBox="0 0 30 30" fill="none" xmlns="http://www.w3.org/2000/svg">
<path d="M12.5 23.75H17.5" stroke="white" stroke-width="1.875" stroke-linecap="round" stroke-linejoin="round"/>
<path d="M15.9375 5.9375C15.9375 6.45527 15.5178 6.875 15 6.875C14.4822 6.875 14.0625 6.45527 14.0625 5.9375C14.0625 5.41973 14.4822 5 15 5C15.5178 5 15.9375 5.41973 15.9375 5.9375Z" fill="white"/>
<path d="M23.4375 18.75V11.25C23.4375 7.73463 23.4375 5.97694 22.5423 4.74476C22.2531 4.34681 21.9032 3.99686 21.5052 3.70773C20.2731 2.8125 18.5154 2.8125 15 2.8125C11.4846 2.8125 9.72694 2.8125 8.49476 3.70773C8.09681 3.99686 7.74686 4.34681 7.45773 4.74476C6.5625 5.97694 6.5625 7.73463 6.5625 11.25V18.75C6.5625 22.2654 6.5625 24.0231 7.45773 25.2552C7.74686 25.6532 8.09681 26.0031 8.49476 26.2923C9.72694 27.1875 11.4846 27.1875 15 27.1875C18.5154 27.1875 20.2731 27.1875 21.5052 26.2923C21.9032 26.0031 22.2531 25.6532 22.5423 25.2552C23.4375 24.0231 23.4375 22.2654 23.4375 18.75Z" fill="white" fill-opacity="0.5"/>
</svg>
