<svg width="51" height="50" viewBox="0 0 51 50" fill="none" xmlns="http://www.w3.org/2000/svg">
<path d="M25.5001 25.0001H13.7292C12.5575 25.0001 11.9716 25.0001 11.5608 25.2985C11.4282 25.3949 11.3115 25.5115 11.2152 25.6442C10.9167 26.0549 10.9167 26.6408 10.9167 27.8126V31.7709M25.5001 25.0001V31.7709M25.5001 25.0001V18.2292M25.5001 25.0001H37.2709C38.4427 25.0001 39.0286 25.0001 39.4393 25.2985C39.572 25.3949 39.6886 25.5115 39.785 25.6442C40.0834 26.0549 40.0834 26.6408 40.0834 27.8126V31.7709" stroke="#3A6A97" stroke-width="3.125" stroke-linejoin="round"/>
<path d="M25.6042 18.2291C27.9477 18.2291 29.1195 18.2291 29.941 17.6323C30.2063 17.4395 30.4396 17.2062 30.6323 16.9409C31.2292 16.1195 31.2292 14.9477 31.2292 12.6041V12.3958C31.2292 10.0522 31.2292 8.88038 30.6323 8.05892C30.4396 7.79363 30.2063 7.56032 29.941 7.36757C29.1195 6.77075 27.9477 6.77075 25.6042 6.77075H25.3958C23.0523 6.77075 21.8805 6.77075 21.059 7.36757C20.7937 7.56032 20.5604 7.79363 20.3677 8.05892C19.7708 8.88038 19.7708 10.0522 19.7708 12.3957V12.6041C19.7708 14.9477 19.7708 16.1195 20.3677 16.9409C20.5604 17.2062 20.7937 17.4395 21.059 17.6323C21.8805 18.2291 23.0522 18.2291 25.3958 18.2291H25.6042Z" fill="#3A6A97" fill-opacity="0.58"/>
<path d="M25.6042 43.2291C27.9477 43.2291 29.1195 43.2291 29.941 42.6323C30.2063 42.4395 30.4396 42.2062 30.6323 41.9409C31.2292 41.1195 31.2292 39.9477 31.2292 37.6041V37.3958C31.2292 35.0522 31.2292 33.8804 30.6323 33.0589C30.4396 32.7936 30.2063 32.5603 29.941 32.3676C29.1195 31.7708 27.9477 31.7708 25.6042 31.7708H25.3958C23.0523 31.7708 21.8805 31.7708 21.059 32.3676C20.7937 32.5603 20.5604 32.7936 20.3677 33.0589C19.7708 33.8804 19.7708 35.0522 19.7708 37.3957V37.6041C19.7708 39.9477 19.7708 41.1195 20.3677 41.9409C20.5604 42.2062 20.7937 42.4395 21.059 42.6323C21.8805 43.2291 23.0522 43.2291 25.3958 43.2291H25.6042Z" fill="#3A6A97" fill-opacity="0.58"/>
<path d="M40.1875 43.2291C42.5311 43.2291 43.7029 43.2291 44.5243 42.6323C44.7896 42.4395 45.0229 42.2062 45.2157 41.9409C45.8125 41.1195 45.8125 39.9477 45.8125 37.6041V37.3958C45.8125 35.0522 45.8125 33.8804 45.2157 33.0589C45.0229 32.7936 44.7896 32.5603 44.5243 32.3676C43.7029 31.7708 42.5311 31.7708 40.1875 31.7708H39.9792C37.6356 31.7708 36.4638 31.7708 35.6423 32.3676C35.377 32.5603 35.1437 32.7936 34.951 33.0589C34.3542 33.8804 34.3542 35.0522 34.3542 37.3957V37.6041C34.3542 39.9477 34.3542 41.1195 34.951 41.9409C35.1437 42.2062 35.377 42.4395 35.6423 42.6323C36.4638 43.2291 37.6356 43.2291 39.9792 43.2291H40.1875Z" fill="#3A6A97" fill-opacity="0.58"/>
<path d="M11.0208 43.2291C13.3644 43.2291 14.5362 43.2291 15.3577 42.6323C15.623 42.4395 15.8563 42.2062 16.049 41.9409C16.6458 41.1195 16.6458 39.9477 16.6458 37.6041V37.3958C16.6458 35.0522 16.6458 33.8804 16.049 33.0589C15.8563 32.7936 15.623 32.5603 15.3577 32.3676C14.5362 31.7708 13.3644 31.7708 11.0208 31.7708H10.8125C8.46892 31.7708 7.29713 31.7708 6.47567 32.3676C6.21038 32.5603 5.97707 32.7936 5.78432 33.0589C5.1875 33.8804 5.1875 35.0522 5.1875 37.3957V37.6041C5.1875 39.9477 5.1875 41.1195 5.78432 41.9409C5.97707 42.2062 6.21038 42.4395 6.47567 42.6323C7.29713 43.2291 8.46892 43.2291 10.8125 43.2291H11.0208Z" fill="#3A6A97" fill-opacity="0.58"/>
</svg>
