<svg width="164" height="50" viewBox="0 0 164 50" fill="none" xmlns="http://www.w3.org/2000/svg">
<path fill-rule="evenodd" clip-rule="evenodd" d="M16.1957 1.60059C3.53127 6.41665 -3.00528 21.2425 1.60062 33.804L24.9528 10.4519L16.1957 1.60059Z" fill="#111111"/>
<path opacity="0.5" fill-rule="evenodd" clip-rule="evenodd" d="M16.1016 1.6002L39.5479 24.9524L48.305 16.1011C43.3806 3.33436 28.8814 -3.08574 16.1016 1.6002Z" fill="#111111"/>
<path opacity="0.5" fill-rule="evenodd" clip-rule="evenodd" d="M10.4518 24.9531L1.60059 33.8043C6.46173 46.5873 21.2785 52.9324 33.8981 48.3052L10.4518 24.9531Z" fill="#111111"/>
<path fill-rule="evenodd" clip-rule="evenodd" d="M48.3053 16.1953L24.9531 39.5475L33.8044 48.3987C46.2426 43.4935 53.3657 28.8464 48.3053 16.1953Z" fill="#111111"/>
<path d="M65.046 36.4996V14.7996H73.168C79.678 14.7996 84.638 19.5116 84.638 25.6806C84.638 31.8186 79.678 36.4996 73.168 36.4996H65.046ZM69.2 32.8106H73.168C77.198 32.8106 80.36 29.7106 80.36 25.6806C80.36 21.6196 77.198 18.4886 73.168 18.4886H69.2V32.8106ZM95.3439 36.8096C90.5079 36.8096 86.7879 33.1516 86.7879 28.4706C86.7879 23.8206 90.3839 20.1936 94.9719 20.1936C99.4979 20.1936 102.877 23.8516 102.877 28.7496V29.7726H90.7559C91.2829 31.9426 93.1429 33.4926 95.5299 33.4926C96.9869 33.4926 98.3199 32.9966 99.1879 32.1596L101.761 34.5466C99.8079 36.0966 97.8549 36.8096 95.3439 36.8096ZM90.7249 26.9516H99.0019C98.5369 24.9056 96.8939 23.4486 94.8789 23.4486C92.8019 23.4486 91.2209 24.8126 90.7249 26.9516ZM102.657 36.4996L108.826 28.3156L102.843 20.4416H107.431L111.12 25.4326L114.809 20.4416H119.211L113.29 28.2536L119.583 36.4996H114.995L111.027 31.1676L107.059 36.4996H102.657ZM123.24 18.3336C121.969 18.3336 120.946 17.3106 120.946 16.0706C120.946 14.7996 121.969 13.8076 123.24 13.8076C124.48 13.8076 125.503 14.7996 125.503 16.0706C125.503 17.3106 124.48 18.3336 123.24 18.3336ZM121.256 36.4996V20.4416H125.193V36.4996H121.256ZM136.672 43.1336C134.223 43.1336 131.898 42.6066 130.038 41.6456L131.433 38.5766C133.231 39.4756 134.874 39.8786 136.579 39.8786C139.152 39.8786 140.516 38.7316 140.516 36.4996V35.0736C139.214 36.0656 137.664 36.5926 135.99 36.5926C131.464 36.5926 127.899 32.9966 127.899 28.3776C127.899 23.7896 131.495 20.1936 136.114 20.1936C137.726 20.1936 139.276 20.6896 140.547 21.5886V20.4416H144.453V36.5306C144.453 40.7776 141.694 43.1336 136.672 43.1336ZM136.579 33.2446C138.191 33.2446 139.555 32.6866 140.516 31.6636V25.1536C139.555 24.1616 138.16 23.5726 136.61 23.5726C133.851 23.5726 131.743 25.6496 131.743 28.3776C131.743 31.1366 133.851 33.2446 136.579 33.2446ZM147.866 36.4996V20.4416H151.803V21.8366C153.012 20.7206 154.593 20.1316 156.391 20.1316C160.111 20.1316 162.715 22.7666 162.715 26.5176V36.4996H158.809V27.1066C158.809 24.9056 157.414 23.5416 155.275 23.5416C153.787 23.5416 152.578 24.1616 151.803 25.2776V36.4996H147.866Z" fill="#111111"/>
<path d="M134.035 17.6978C134.035 17.6089 134.021 17.5291 133.994 17.4585C133.969 17.3856 133.921 17.3195 133.851 17.2603C133.78 17.1987 133.681 17.1383 133.553 17.0791C133.426 17.0199 133.26 16.9583 133.058 16.8945C132.832 16.8216 132.618 16.7396 132.415 16.6484C132.215 16.5573 132.037 16.4513 131.882 16.3306C131.729 16.2075 131.608 16.0651 131.52 15.9033C131.433 15.7415 131.39 15.5535 131.39 15.3394C131.39 15.132 131.435 14.944 131.526 14.7754C131.618 14.6045 131.745 14.4587 131.909 14.3379C132.073 14.2148 132.267 14.1203 132.49 14.0542C132.716 13.9881 132.963 13.9551 133.232 13.9551C133.599 13.9551 133.919 14.0212 134.192 14.1533C134.466 14.2855 134.678 14.4666 134.828 14.6968C134.981 14.9269 135.057 15.1901 135.057 15.4863H134.039C134.039 15.3405 134.008 15.2129 133.946 15.1035C133.887 14.9919 133.796 14.9041 133.673 14.8403C133.552 14.7765 133.399 14.7446 133.215 14.7446C133.037 14.7446 132.889 14.772 132.771 14.8267C132.652 14.8791 132.563 14.9508 132.504 15.042C132.445 15.1309 132.415 15.2311 132.415 15.3428C132.415 15.4271 132.436 15.5034 132.477 15.5718C132.52 15.6401 132.584 15.7039 132.668 15.7632C132.752 15.8224 132.856 15.8783 132.979 15.9307C133.102 15.9831 133.244 16.0343 133.406 16.0845C133.677 16.1665 133.916 16.2588 134.121 16.3613C134.328 16.4639 134.501 16.5789 134.64 16.7065C134.779 16.8341 134.884 16.9788 134.955 17.1406C135.025 17.3024 135.061 17.4858 135.061 17.6909C135.061 17.9074 135.018 18.1011 134.934 18.272C134.85 18.4429 134.728 18.5876 134.568 18.7061C134.409 18.8245 134.219 18.9146 133.998 18.9761C133.777 19.0376 133.529 19.0684 133.256 19.0684C133.01 19.0684 132.767 19.0365 132.528 18.9727C132.289 18.9066 132.071 18.8075 131.875 18.6753C131.681 18.5431 131.526 18.3745 131.41 18.1694C131.294 17.9644 131.236 17.7217 131.236 17.4414H132.265C132.265 17.5964 132.289 17.7274 132.336 17.8345C132.384 17.9416 132.451 18.0282 132.538 18.0942C132.627 18.1603 132.732 18.2082 132.853 18.2378C132.976 18.2674 133.11 18.2822 133.256 18.2822C133.434 18.2822 133.579 18.2572 133.693 18.207C133.81 18.1569 133.895 18.0874 133.95 17.9985C134.007 17.9097 134.035 17.8094 134.035 17.6978ZM139.453 14.0234V19H138.431V14.0234H139.453ZM140.984 14.0234V14.8267H136.924V14.0234H140.984ZM145.787 14.0234H146.809V17.3115C146.809 17.6943 146.727 18.0168 146.563 18.2788C146.401 18.5409 146.176 18.738 145.889 18.8701C145.604 19.0023 145.276 19.0684 144.905 19.0684C144.533 19.0684 144.203 19.0023 143.914 18.8701C143.627 18.738 143.401 18.5409 143.237 18.2788C143.075 18.0168 142.994 17.6943 142.994 17.3115V14.0234H144.02V17.3115C144.02 17.5348 144.055 17.7171 144.126 17.8584C144.196 17.9997 144.298 18.1034 144.43 18.1694C144.564 18.2355 144.723 18.2686 144.905 18.2686C145.092 18.2686 145.25 18.2355 145.38 18.1694C145.512 18.1034 145.612 17.9997 145.681 17.8584C145.751 17.7171 145.787 17.5348 145.787 17.3115V14.0234ZM150.651 19H149.567L149.574 18.2002H150.651C150.92 18.2002 151.146 18.1398 151.331 18.019C151.515 17.896 151.654 17.7171 151.748 17.4824C151.844 17.2477 151.891 16.964 151.891 16.6313V16.3887C151.891 16.1335 151.864 15.909 151.809 15.7153C151.757 15.5216 151.678 15.3587 151.574 15.2266C151.469 15.0944 151.34 14.9953 151.187 14.9292C151.035 14.8608 150.859 14.8267 150.661 14.8267H149.547V14.0234H150.661C150.994 14.0234 151.298 14.0804 151.574 14.1943C151.852 14.306 152.092 14.4666 152.295 14.6763C152.498 14.8859 152.654 15.1366 152.763 15.4282C152.875 15.7176 152.931 16.04 152.931 16.3955V16.6313C152.931 16.9845 152.875 17.307 152.763 17.5986C152.654 17.8903 152.498 18.141 152.295 18.3506C152.094 18.5579 151.854 18.7186 151.574 18.8325C151.296 18.9442 150.988 19 150.651 19ZM150.148 14.0234V19H149.123V14.0234H150.148ZM156.236 14.0234V19H155.214V14.0234H156.236ZM162.754 16.3955V16.6313C162.754 17.0096 162.703 17.3491 162.6 17.6499C162.498 17.9507 162.353 18.207 162.166 18.4189C161.98 18.6286 161.756 18.7892 161.496 18.9009C161.239 19.0125 160.953 19.0684 160.639 19.0684C160.326 19.0684 160.04 19.0125 159.781 18.9009C159.523 18.7892 159.3 18.6286 159.111 18.4189C158.922 18.207 158.775 17.9507 158.67 17.6499C158.567 17.3491 158.516 17.0096 158.516 16.6313V16.3955C158.516 16.015 158.567 15.6755 158.67 15.377C158.772 15.0762 158.917 14.8198 159.104 14.6079C159.293 14.396 159.516 14.2342 159.774 14.1226C160.034 14.0109 160.32 13.9551 160.632 13.9551C160.946 13.9551 161.232 14.0109 161.49 14.1226C161.749 14.2342 161.973 14.396 162.16 14.6079C162.349 14.8198 162.495 15.0762 162.597 15.377C162.702 15.6755 162.754 16.015 162.754 16.3955ZM161.719 16.6313V16.3887C161.719 16.1243 161.695 15.8919 161.647 15.6914C161.599 15.4909 161.528 15.3223 161.435 15.1855C161.342 15.0488 161.228 14.9463 161.093 14.8779C160.959 14.8073 160.805 14.772 160.632 14.772C160.459 14.772 160.305 14.8073 160.17 14.8779C160.038 14.9463 159.925 15.0488 159.832 15.1855C159.741 15.3223 159.671 15.4909 159.623 15.6914C159.576 15.8919 159.552 16.1243 159.552 16.3887V16.6313C159.552 16.8934 159.576 17.1258 159.623 17.3286C159.671 17.5291 159.742 17.6989 159.835 17.8379C159.929 17.9746 160.043 18.0783 160.177 18.1489C160.312 18.2196 160.465 18.2549 160.639 18.2549C160.812 18.2549 160.966 18.2196 161.1 18.1489C161.234 18.0783 161.347 17.9746 161.438 17.8379C161.53 17.6989 161.599 17.5291 161.647 17.3286C161.695 17.1258 161.719 16.8934 161.719 16.6313Z" fill="#111111"/>
</svg>
